<svg width="676" height="999" viewBox="0 0 676 999" fill="none" xmlns="http://www.w3.org/2000/svg">
<g clip-path="url(#clip0_4_66)">
<path fill-rule="evenodd" clip-rule="evenodd" d="M629.315 306.858C630.333 307.894 630.642 309.508 630.073 310.808C629.379 312.394 629.143 314.177 629.491 315.989C630.466 321.069 635.664 324.448 641.1 323.537C646.536 322.624 650.152 317.768 649.177 312.688C648.829 310.877 647.944 309.282 646.704 308.02C645.686 306.985 645.376 305.371 645.945 304.071C646.639 302.485 646.875 300.702 646.528 298.891C645.552 293.811 640.355 290.43 634.919 291.342C629.483 292.254 625.867 297.11 626.842 302.191C627.19 304.002 628.074 305.598 629.315 306.858ZM644.255 313.513C644.743 316.053 642.935 318.482 640.217 318.937C637.499 319.393 634.9 317.703 634.412 315.163C633.925 312.623 635.733 310.195 638.451 309.738C641.169 309.283 643.767 310.973 644.255 313.513ZM637.568 305.14C640.286 304.684 642.094 302.256 641.606 299.716C641.119 297.176 638.52 295.486 635.802 295.941C633.084 296.397 631.276 298.826 631.763 301.366C632.251 303.906 634.85 305.596 637.568 305.14Z" stroke="#002E63" stroke-opacity="0.2"/>
<path fill-rule="evenodd" clip-rule="evenodd" d="M629.545 417.639C630.361 418.82 630.374 420.46 629.578 421.652C628.607 423.105 628.052 424.826 628.067 426.666C628.109 431.826 632.621 435.978 638.143 435.939C643.666 435.899 648.109 431.683 648.066 426.522C648.051 424.682 647.468 422.97 646.473 421.531C645.657 420.35 645.644 418.71 646.44 417.518C647.411 416.065 647.966 414.345 647.951 412.505C647.909 407.344 643.397 403.192 637.875 403.232C632.352 403.271 627.909 407.487 627.952 412.648C627.967 414.488 628.55 416.2 629.545 417.639ZM643.066 426.557C643.088 429.138 640.866 431.247 638.105 431.266C635.344 431.286 633.088 429.21 633.067 426.629C633.046 424.049 635.267 421.941 638.028 421.921C640.79 421.902 643.045 423.977 643.066 426.557ZM637.99 417.249C640.751 417.229 642.972 415.121 642.951 412.54C642.93 409.96 640.674 407.884 637.913 407.903C635.152 407.924 632.93 410.031 632.951 412.612C632.973 415.193 635.228 417.268 637.99 417.249Z" stroke="#002E63" stroke-opacity="0.2"/>
<path fill-rule="evenodd" clip-rule="evenodd" d="M569.307 251.87C570.463 252.769 571 254.331 570.62 255.691C570.158 257.348 570.177 259.145 570.779 260.897C572.468 265.811 578.099 268.516 583.358 266.938C588.616 265.36 591.51 260.097 589.821 255.183C589.219 253.431 588.116 251.959 586.707 250.863C585.551 249.964 585.015 248.402 585.394 247.043C585.857 245.385 585.838 243.589 585.235 241.836C583.547 236.922 577.915 234.217 572.657 235.796C567.399 237.373 564.505 242.636 566.193 247.55C566.795 249.302 567.899 250.774 569.307 251.87ZM585.061 256.611C585.905 259.068 584.458 261.7 581.829 262.488C579.2 263.278 576.384 261.926 575.54 259.469C574.695 257.011 576.142 254.38 578.772 253.591C581.401 252.802 584.217 254.154 585.061 256.611ZM577.243 249.142C579.872 248.353 581.319 245.722 580.475 243.264C579.631 240.807 576.815 239.455 574.186 240.245C571.557 241.034 570.11 243.665 570.954 246.122C571.798 248.579 574.614 249.931 577.243 249.142Z" stroke="#002E63" stroke-opacity="0.2"/>
<path fill-rule="evenodd" clip-rule="evenodd" d="M569.327 362.773C570.323 363.826 570.599 365.445 570.003 366.736C569.276 368.308 569.002 370.087 569.312 371.904C570.181 377.001 575.307 380.475 580.761 379.662C586.215 378.85 589.932 374.06 589.063 368.964C588.753 367.146 587.902 365.535 586.688 364.251C585.692 363.198 585.416 361.579 586.013 360.288C586.74 358.716 587.013 356.937 586.703 355.12C585.834 350.023 580.708 346.549 575.254 347.362C569.8 348.174 566.083 352.964 566.952 358.061C567.262 359.878 568.113 361.489 569.327 362.773ZM584.125 369.698C584.56 372.247 582.701 374.642 579.974 375.048C577.247 375.454 574.684 373.717 574.25 371.169C573.815 368.621 575.674 366.225 578.401 365.819C581.128 365.413 583.691 367.15 584.125 369.698ZM577.614 361.205C580.341 360.799 582.2 358.403 581.765 355.855C581.331 353.307 578.768 351.57 576.041 351.976C573.314 352.382 571.455 354.778 571.89 357.326C572.324 359.874 574.887 361.611 577.614 361.205Z" stroke="#002E63" stroke-opacity="0.2"/>
<path fill-rule="evenodd" clip-rule="evenodd" d="M509.448 196.844C510.719 197.597 511.467 199.08 511.278 200.474C511.049 202.174 511.317 203.953 512.156 205.617C514.51 210.286 520.468 212.288 525.464 210.088C530.46 207.888 532.602 202.321 530.249 197.652C529.409 195.987 528.112 194.661 526.563 193.744C525.293 192.992 524.545 191.509 524.733 190.115C524.963 188.415 524.695 186.636 523.856 184.971C521.502 180.301 515.543 178.3 510.547 180.499C505.551 182.699 503.409 188.267 505.763 192.936C506.602 194.601 507.9 195.927 509.448 196.844ZM525.725 199.643C526.902 201.978 525.831 204.761 523.333 205.861C520.835 206.961 517.856 205.96 516.679 203.626C515.502 201.292 516.573 198.508 519.071 197.408C521.569 196.308 524.548 197.309 525.725 199.643ZM516.94 193.181C519.438 192.081 520.509 189.297 519.332 186.963C518.156 184.627 515.176 183.626 512.678 184.726C510.18 185.826 509.109 188.61 510.286 190.945C511.463 193.28 514.442 194.281 516.94 193.181Z" stroke="#002E63" stroke-opacity="0.2"/>
<path fill-rule="evenodd" clip-rule="evenodd" d="M509.302 307.887C510.451 308.794 510.976 310.358 510.587 311.716C510.112 313.371 510.118 315.167 510.708 316.923C512.36 321.848 517.971 324.588 523.241 323.044C528.511 321.5 531.444 316.256 529.792 311.331C529.202 309.575 528.11 308.098 526.709 306.992C525.56 306.085 525.035 304.52 525.424 303.163C525.899 301.508 525.893 299.711 525.304 297.955C523.651 293.031 518.04 290.29 512.77 291.834C507.5 293.379 504.568 298.623 506.22 303.547C506.809 305.303 507.901 306.782 509.302 307.887ZM525.021 312.729C525.847 315.192 524.38 317.814 521.745 318.586C519.111 319.358 516.305 317.988 515.479 315.525C514.652 313.063 516.119 310.44 518.754 309.669C521.389 308.897 524.194 310.267 525.021 312.729ZM517.258 305.21C519.893 304.438 521.359 301.816 520.533 299.353C519.707 296.891 516.901 295.521 514.266 296.293C511.631 297.065 510.165 299.687 510.991 302.149C511.817 304.612 514.623 305.982 517.258 305.21Z" stroke="#002E63" stroke-opacity="0.2"/>
<path fill-rule="evenodd" clip-rule="evenodd" d="M509.329 418.802C510.319 419.86 510.586 421.481 509.982 422.768C509.246 424.337 508.963 426.114 509.262 427.933C510.101 433.034 515.207 436.533 520.666 435.749C526.124 434.964 529.869 430.193 529.029 425.092C528.73 423.273 527.888 421.657 526.682 420.368C525.692 419.31 525.425 417.689 526.029 416.402C526.765 414.833 527.049 413.056 526.749 411.237C525.91 406.136 520.804 402.636 515.346 403.42C509.887 404.205 506.142 408.977 506.982 414.078C507.281 415.897 508.123 417.512 509.329 418.802ZM524.088 425.802C524.507 428.352 522.635 430.738 519.906 431.131C517.176 431.523 514.623 429.773 514.204 427.223C513.784 424.672 515.656 422.286 518.386 421.894C521.115 421.501 523.668 423.252 524.088 425.802ZM517.626 417.275C520.355 416.883 522.227 414.498 521.808 411.947C521.388 409.397 518.835 407.647 516.106 408.039C513.376 408.431 511.504 410.817 511.924 413.367C512.343 415.919 514.896 417.668 517.626 417.275Z" stroke="#002E63" stroke-opacity="0.2"/>
<path fill-rule="evenodd" clip-rule="evenodd" d="M449.451 252.94C450.724 253.688 451.476 255.169 451.292 256.564C451.068 258.264 451.341 260.043 452.186 261.705C454.554 266.369 460.518 268.354 465.507 266.141C470.497 263.929 472.622 258.354 470.254 253.692C469.41 252.029 468.108 250.707 466.556 249.794C465.284 249.045 464.532 247.564 464.716 246.169C464.94 244.468 464.667 242.691 463.822 241.028C461.454 236.365 455.49 234.379 450.501 236.592C445.511 238.805 443.386 244.378 445.754 249.042C446.598 250.704 447.9 252.027 449.451 252.94ZM465.737 255.695C466.921 258.026 465.858 260.813 463.364 261.919C460.869 263.026 457.887 262.033 456.703 259.702C455.519 257.371 456.581 254.583 459.076 253.477C461.571 252.37 464.553 253.364 465.737 255.695ZM456.932 249.256C459.427 248.149 460.489 245.362 459.305 243.031C458.121 240.7 455.139 239.707 452.644 240.813C450.15 241.92 449.087 244.706 450.271 247.038C451.455 249.37 454.437 250.362 456.932 249.256Z" stroke="#002E63" stroke-opacity="0.2"/>
<path fill-rule="evenodd" clip-rule="evenodd" d="M449.305 364.031C450.462 364.928 451.002 366.488 450.625 367.849C450.166 369.507 450.189 371.304 450.794 373.055C452.492 377.966 458.129 380.661 463.384 379.074C468.639 377.488 471.523 372.22 469.825 367.309C469.22 365.558 468.114 364.088 466.703 362.994C465.545 362.097 465.006 360.536 465.383 359.176C465.842 357.517 465.819 355.721 465.214 353.969C463.516 349.059 457.879 346.363 452.624 347.95C447.368 349.537 444.484 354.805 446.182 359.716C446.788 361.467 447.894 362.936 449.305 364.031ZM465.068 368.745C465.916 371.201 464.475 373.835 461.847 374.628C459.219 375.421 456.401 374.074 455.552 371.618C454.703 369.163 456.145 366.528 458.772 365.735C461.4 364.942 464.219 366.289 465.068 368.745ZM457.235 361.289C459.863 360.495 461.305 357.862 460.456 355.406C459.607 352.951 456.788 351.603 454.161 352.397C451.533 353.19 450.091 355.824 450.94 358.279C451.789 360.735 454.608 362.082 457.235 361.289Z" stroke="#002E63" stroke-opacity="0.2"/>
<path fill-rule="evenodd" clip-rule="evenodd" d="M389.746 197.905C391.113 198.491 392.067 199.866 392.081 201.272C392.099 202.985 392.62 204.715 393.691 206.258C396.695 210.589 402.887 211.824 407.522 209.017C412.156 206.209 413.477 200.422 410.473 196.092C409.402 194.547 407.926 193.397 406.259 192.683C404.892 192.097 403.938 190.721 403.923 189.316C403.906 187.603 403.385 185.874 402.314 184.329C399.31 179.998 393.117 178.763 388.483 181.571C383.849 184.379 382.527 190.165 385.532 194.496C386.603 196.04 388.079 197.191 389.746 197.905ZM406.278 198.634C407.78 200.799 407.119 203.692 404.802 205.096C402.485 206.499 399.389 205.882 397.887 203.716C396.384 201.551 397.045 198.658 399.362 197.254C401.679 195.851 404.776 196.467 406.278 198.634ZM396.643 193.333C398.96 191.929 399.62 189.036 398.118 186.871C396.616 184.706 393.52 184.088 391.203 185.492C388.886 186.895 388.225 189.788 389.727 191.955C391.229 194.12 394.325 194.737 396.643 193.333Z" stroke="#002E63" stroke-opacity="0.2"/>
<path fill-rule="evenodd" clip-rule="evenodd" d="M389.482 309.159C390.769 309.886 391.551 311.355 391.394 312.752C391.204 314.456 391.512 316.23 392.389 317.877C394.849 322.498 400.852 324.381 405.796 322.082C410.741 319.783 412.756 314.174 410.296 309.553C409.419 307.905 408.091 306.605 406.522 305.719C405.235 304.993 404.453 303.525 404.61 302.127C404.8 300.422 404.492 298.65 403.615 297.002C401.155 292.381 395.153 290.498 390.208 292.797C385.263 295.096 383.248 300.706 385.708 305.327C386.585 306.974 387.913 308.273 389.482 309.159ZM405.819 311.634C407.049 313.944 406.042 316.749 403.569 317.898C401.097 319.047 398.096 318.106 396.866 315.796C395.636 313.485 396.643 310.681 399.116 309.531C401.588 308.382 404.589 309.323 405.819 311.634ZM396.889 305.347C399.361 304.198 400.368 301.393 399.138 299.083C397.908 296.772 394.907 295.831 392.435 296.981C389.962 298.13 388.955 300.935 390.185 303.246C391.415 305.556 394.416 306.497 396.889 305.347Z" stroke="#002E63" stroke-opacity="0.2"/>
<path fill-rule="evenodd" clip-rule="evenodd" d="M389.324 420.343C390.509 421.208 391.098 422.753 390.764 424.123C390.358 425.794 390.437 427.589 391.098 429.322C392.951 434.185 398.67 436.723 403.873 434.991C409.076 433.259 411.792 427.915 409.939 423.053C409.278 421.319 408.126 419.881 406.681 418.826C405.496 417.961 404.907 416.417 405.241 415.047C405.647 413.376 405.567 411.58 404.907 409.847C403.054 404.985 397.334 402.447 392.132 404.178C386.929 405.91 384.213 411.255 386.066 416.117C386.726 417.851 387.879 419.289 389.324 420.343ZM405.229 424.62C406.155 427.051 404.797 429.723 402.196 430.589C399.594 431.455 396.735 430.186 395.808 427.755C394.882 425.324 396.24 422.652 398.841 421.785C401.442 420.92 404.302 422.189 405.229 424.62ZM397.164 417.384C399.765 416.518 401.123 413.846 400.197 411.414C399.27 408.983 396.41 407.714 393.809 408.581C391.207 409.446 389.85 412.119 390.776 414.549C391.702 416.981 394.562 418.249 397.164 417.384Z" stroke="#002E63" stroke-opacity="0.2"/>
<path fill-rule="evenodd" clip-rule="evenodd" d="M329.816 254.168C331.198 254.723 332.189 256.076 332.24 257.48C332.303 259.192 332.87 260.909 333.982 262.428C337.101 266.687 343.324 267.779 347.882 264.864C352.44 261.95 353.607 256.135 350.489 251.874C349.377 250.356 347.87 249.24 346.185 248.564C344.803 248.011 343.812 246.658 343.761 245.253C343.698 243.54 343.131 241.824 342.019 240.305C338.901 236.045 332.678 234.955 328.119 237.869C323.561 240.783 322.394 246.599 325.512 250.858C326.624 252.377 328.131 253.494 329.816 254.168ZM346.362 254.513C347.921 256.643 347.338 259.55 345.059 261.007C342.78 262.465 339.668 261.919 338.109 259.789C336.55 257.66 337.133 254.752 339.412 253.295C341.691 251.838 344.803 252.382 346.362 254.513ZM336.589 249.438C338.868 247.981 339.452 245.074 337.893 242.943C336.333 240.813 333.222 240.268 330.943 241.725C328.664 243.182 328.08 246.09 329.639 248.22C331.198 250.35 334.31 250.896 336.589 249.438Z" stroke="#002E63" stroke-opacity="0.2"/>
<path fill-rule="evenodd" clip-rule="evenodd" d="M329.558 365.536C330.874 366.216 331.715 367.655 331.616 369.057C331.496 370.767 331.877 372.528 332.821 374.143C335.468 378.672 341.544 380.339 346.391 377.864C351.237 375.389 353.02 369.712 350.372 365.183C349.428 363.568 348.048 362.316 346.444 361.487C345.128 360.807 344.287 359.369 344.385 357.966C344.506 356.257 344.125 354.495 343.181 352.881C340.533 348.351 334.458 346.686 329.611 349.16C324.764 351.634 322.981 357.312 325.629 361.842C326.573 363.456 327.953 364.707 329.558 365.536ZM345.984 367.423C347.308 369.687 346.417 372.526 343.994 373.763C341.57 375.001 338.532 374.168 337.209 371.903C335.885 369.638 336.776 366.799 339.199 365.562C341.623 364.325 344.66 365.158 345.984 367.423ZM336.802 361.461C339.226 360.224 340.117 357.386 338.793 355.121C337.469 352.856 334.431 352.024 332.008 353.26C329.585 354.497 328.693 357.336 330.017 359.602C331.341 361.866 334.379 362.699 336.802 361.461Z" stroke="#002E63" stroke-opacity="0.2"/>
<path fill-rule="evenodd" clip-rule="evenodd" d="M270.267 199.054C271.714 199.438 272.882 200.661 273.126 202.048C273.423 203.738 274.221 205.373 275.533 206.745C279.21 210.597 285.532 210.932 289.652 207.495C293.772 204.058 294.131 198.151 290.454 194.3C289.142 192.928 287.495 192.002 285.731 191.533C284.284 191.15 283.116 189.927 282.872 188.54C282.575 186.85 281.776 185.215 280.465 183.842C276.788 179.992 270.466 179.657 266.346 183.093C262.225 186.53 261.867 192.438 265.544 196.288C266.856 197.661 268.503 198.587 270.267 199.054ZM286.723 197.411C288.562 199.337 288.383 202.291 286.323 204.009C284.262 205.728 281.102 205.56 279.263 203.634C277.424 201.709 277.604 198.755 279.664 197.037C281.724 195.318 284.885 195.486 286.723 197.411ZM276.334 193.551C278.394 191.832 278.574 188.879 276.735 186.953C274.896 185.028 271.735 184.861 269.675 186.579C267.615 188.297 267.436 191.251 269.274 193.176C271.113 195.101 274.274 195.27 276.334 193.551Z" stroke="#002E63" stroke-opacity="0.2"/>
<path fill-rule="evenodd" clip-rule="evenodd" d="M269.951 310.567C271.357 311.065 272.409 312.377 272.525 313.779C272.666 315.487 273.311 317.178 274.492 318.651C277.803 322.783 284.071 323.623 288.491 320.528C292.911 317.433 293.81 311.577 290.499 307.446C289.318 305.973 287.762 304.918 286.047 304.312C284.641 303.814 283.589 302.502 283.473 301.1C283.332 299.392 282.686 297.699 281.506 296.226C278.195 292.096 271.927 291.256 267.507 294.35C263.087 297.445 262.188 303.302 265.499 307.432C266.68 308.905 268.236 309.96 269.951 310.567ZM286.497 310.247C288.153 312.312 287.703 315.241 285.493 316.789C283.283 318.335 280.149 317.916 278.494 315.85C276.838 313.785 277.288 310.856 279.498 309.309C281.708 307.762 284.842 308.182 286.497 310.247ZM276.5 305.57C278.71 304.022 279.16 301.093 277.504 299.028C275.849 296.963 272.715 296.543 270.505 298.09C268.295 299.637 267.845 302.565 269.501 304.631C271.156 306.697 274.29 307.116 276.5 305.57Z" stroke="#002E63" stroke-opacity="0.2"/>
<path fill-rule="evenodd" clip-rule="evenodd" d="M269.71 422.105C271.07 422.706 272.007 424.092 272.003 425.497C271.999 427.21 272.498 428.946 273.55 430.501C276.5 434.865 282.676 436.168 287.345 433.411C292.014 430.654 293.408 424.882 290.459 420.519C289.407 418.963 287.945 417.796 286.288 417.064C284.928 416.463 283.991 415.077 283.994 413.672C283.999 411.958 283.499 410.224 282.447 408.668C279.498 404.304 273.321 403.002 268.652 405.758C263.983 408.515 262.589 414.287 265.539 418.65C266.591 420.206 268.052 421.372 269.71 422.105ZM286.232 423.014C287.706 425.196 287.009 428.082 284.675 429.461C282.34 430.839 279.252 430.188 277.777 428.006C276.302 425.823 276.999 422.938 279.334 421.559C281.669 420.182 284.757 420.833 286.232 423.014ZM276.664 417.609C278.998 416.231 279.695 413.345 278.22 411.164C276.745 408.982 273.657 408.33 271.323 409.709C268.988 411.087 268.291 413.973 269.766 416.155C271.241 418.336 274.329 418.987 276.664 417.609Z" stroke="#002E63" stroke-opacity="0.2"/>
<path fill-rule="evenodd" clip-rule="evenodd" d="M210.453 255.446C211.917 255.769 213.142 256.942 213.452 258.317C213.83 259.994 214.706 261.593 216.082 262.91C219.94 266.603 226.271 266.674 230.223 263.068C234.174 259.462 234.25 253.546 230.392 249.853C229.016 248.536 227.326 247.68 225.542 247.287C224.078 246.964 222.852 245.791 222.542 244.416C222.164 242.739 221.289 241.139 219.913 239.823C216.055 236.13 209.724 236.059 205.772 239.665C201.82 243.27 201.745 249.186 205.603 252.88C206.978 254.196 208.668 255.052 210.453 255.446ZM226.814 253.117C228.744 254.964 228.706 257.922 226.73 259.725C224.754 261.528 221.588 261.492 219.659 259.646C217.73 257.799 217.768 254.841 219.744 253.039C221.72 251.235 224.885 251.27 226.814 253.117ZM216.251 249.695C218.227 247.892 218.265 244.933 216.336 243.087C214.406 241.24 211.241 241.206 209.265 243.008C207.289 244.811 207.251 247.769 209.18 249.615C211.109 251.462 214.275 251.498 216.251 249.695Z" stroke="#002E63" stroke-opacity="0.2"/>
<path fill-rule="evenodd" clip-rule="evenodd" d="M210.181 367.117C211.619 367.529 212.759 368.775 212.971 370.166C213.229 371.863 213.99 373.513 215.269 374.912C218.858 378.835 225.17 379.297 229.369 375.943C233.567 372.59 234.061 366.69 230.472 362.767C229.192 361.368 227.567 360.409 225.814 359.907C224.376 359.494 223.236 358.249 223.024 356.857C222.765 355.161 222.005 353.511 220.725 352.112C217.137 348.188 210.824 347.727 206.626 351.081C202.428 354.435 201.934 360.333 205.523 364.257C206.802 365.656 208.428 366.614 210.181 367.117ZM226.671 365.803C228.466 367.765 228.219 370.714 226.12 372.392C224.021 374.068 220.864 373.837 219.07 371.876C217.276 369.914 217.523 366.965 219.622 365.287C221.721 363.611 224.877 363.842 226.671 365.803ZM216.373 361.736C218.472 360.059 218.719 357.109 216.925 355.148C215.13 353.186 211.974 352.955 209.875 354.633C207.776 356.309 207.529 359.259 209.323 361.22C211.118 363.182 214.274 363.413 216.373 361.736Z" stroke="#002E63" stroke-opacity="0.2"/>
<path fill-rule="evenodd" clip-rule="evenodd" d="M151.03 200.191C152.525 200.347 153.893 201.374 154.377 202.704C154.968 204.327 156.043 205.816 157.578 206.969C161.883 210.201 168.178 209.561 171.637 205.538C175.096 201.515 174.411 195.632 170.106 192.399C168.571 191.246 166.783 190.587 164.961 190.396C163.466 190.241 162.099 189.214 161.614 187.883C161.023 186.261 159.948 184.771 158.413 183.619C154.108 180.385 147.814 181.026 144.354 185.049C140.895 189.073 141.58 194.955 145.885 198.188C147.42 199.341 149.208 200.001 151.03 200.191ZM166.974 196.041C169.126 197.658 169.469 200.599 167.739 202.611C166.01 204.622 162.862 204.943 160.71 203.326C158.557 201.71 158.215 198.769 159.944 196.757C161.674 194.745 164.821 194.426 166.974 196.041ZM156.047 193.83C157.777 191.818 157.434 188.877 155.281 187.261C153.129 185.645 149.981 185.965 148.252 187.976C146.522 189.988 146.865 192.929 149.017 194.546C151.17 196.162 154.317 195.842 156.047 193.83Z" stroke="#002E63" stroke-opacity="0.2"/>
<path fill-rule="evenodd" clip-rule="evenodd" d="M150.741 311.954C152.223 312.19 153.525 313.289 153.927 314.643C154.417 316.294 155.399 317.839 156.86 319.073C160.959 322.531 167.283 322.23 170.984 318.4C174.686 314.569 174.363 308.659 170.264 305.201C168.803 303.967 167.058 303.212 165.251 302.924C163.768 302.689 162.466 301.59 162.064 300.236C161.574 298.584 160.593 297.04 159.131 295.806C155.032 292.347 148.709 292.648 145.007 296.479C141.306 300.309 141.628 306.219 145.727 309.678C147.189 310.912 148.933 311.667 150.741 311.954ZM166.913 308.669C168.963 310.398 169.124 313.352 167.273 315.268C165.423 317.183 162.261 317.334 160.211 315.605C158.162 313.875 158.001 310.92 159.851 309.005C161.702 307.089 164.864 306.939 166.913 308.669ZM156.14 305.874C157.991 303.958 157.83 301.004 155.78 299.274C153.731 297.544 150.569 297.696 148.718 299.61C146.868 301.526 147.029 304.48 149.078 306.21C151.128 307.94 154.29 307.788 156.14 305.874Z" stroke="#002E63" stroke-opacity="0.2"/>
<path fill-rule="evenodd" clip-rule="evenodd" d="M150.552 423.823C152.023 424.115 153.277 425.262 153.62 426.63C154.039 428.298 154.953 429.879 156.36 431.165C160.307 434.776 166.638 434.713 170.502 431.024C174.365 427.336 174.297 421.419 170.35 417.809C168.943 416.522 167.233 415.702 165.439 415.346C163.968 415.054 162.714 413.908 162.371 412.54C161.952 410.871 161.038 409.291 159.631 408.003C155.684 404.393 149.353 404.457 145.49 408.145C141.626 411.833 141.694 417.75 145.641 421.36C147.048 422.647 148.758 423.468 150.552 423.823ZM166.853 421.148C168.826 422.954 168.86 425.912 166.928 427.756C164.997 429.6 161.831 429.632 159.858 427.826C157.884 426.022 157.85 423.063 159.782 421.219C161.714 419.375 164.879 419.343 166.853 421.148ZM156.209 417.95C158.141 416.107 158.107 413.148 156.133 411.342C154.16 409.538 150.994 409.57 149.063 411.413C147.131 413.257 147.165 416.216 149.138 418.021C151.112 419.826 154.277 419.794 156.209 417.95Z" stroke="#002E63" stroke-opacity="0.2"/>
<path fill-rule="evenodd" clip-rule="evenodd" d="M91.3571 256.648C92.8591 256.719 94.29 257.667 94.86 258.967C95.554 260.553 96.7231 261.979 98.3301 263.044C102.836 266.029 109.078 265.034 112.271 260.823C115.465 256.612 114.401 250.78 109.895 247.795C108.289 246.731 106.461 246.173 104.63 246.086C103.128 246.014 101.697 245.066 101.127 243.766C100.433 242.18 99.264 240.754 97.657 239.689C93.151 236.705 86.9101 237.699 83.7161 241.91C80.5231 246.121 81.586 251.954 86.092 254.938C87.699 256.002 89.5261 256.56 91.3571 256.648ZM107.004 251.607C109.257 253.1 109.789 256.016 108.192 258.122C106.595 260.227 103.474 260.724 101.221 259.232C98.9681 257.739 98.4371 254.823 100.033 252.717C101.63 250.612 104.751 250.116 107.004 251.607ZM95.954 250.016C97.551 247.91 97.0191 244.993 94.7661 243.501C92.5131 242.01 89.392 242.507 87.795 244.611C86.199 246.717 86.731 249.633 88.983 251.126C91.236 252.618 94.357 252.121 95.954 250.016Z" stroke="#002E63" stroke-opacity="0.2"/>
<path fill-rule="evenodd" clip-rule="evenodd" d="M91.162 368.571C92.661 368.692 94.055 369.686 94.576 371.006C95.21 372.613 96.3251 374.076 97.8901 375.193C102.281 378.324 108.556 377.535 111.906 373.432C115.256 369.329 114.413 363.465 110.022 360.333C108.457 359.218 106.651 358.6 104.825 358.452C103.326 358.332 101.932 357.337 101.411 356.019C100.777 354.41 99.662 352.947 98.097 351.83C93.706 348.7 87.431 349.488 84.081 353.592C80.731 357.694 81.5741 363.558 85.9651 366.69C87.5311 367.806 89.336 368.423 91.162 368.571ZM106.989 364.048C109.184 365.614 109.606 368.546 107.931 370.597C106.256 372.649 103.118 373.044 100.923 371.478C98.728 369.912 98.3061 366.981 99.9811 364.929C101.656 362.877 104.794 362.483 106.989 364.048ZM96.006 362.095C97.681 360.043 97.2591 357.111 95.0641 355.545C92.8691 353.98 89.7311 354.374 88.0561 356.426C86.3811 358.477 86.803 361.41 88.998 362.975C91.193 364.541 94.331 364.146 96.006 362.095Z" stroke="#002E63" stroke-opacity="0.2"/>
<path fill-rule="evenodd" clip-rule="evenodd" d="M31.807 313.179C33.311 313.143 34.816 313.986 35.49 315.242C36.312 316.774 37.595 318.112 39.284 319.058C44.02 321.712 50.162 320.274 53.002 315.848C55.842 311.421 54.304 305.681 49.567 303.027C47.878 302.081 46.01 301.655 44.177 301.699C42.674 301.735 41.169 300.892 40.495 299.637C39.672 298.105 38.39 296.767 36.701 295.82C31.964 293.167 25.822 294.604 22.983 299.031C20.143 303.458 21.681 309.198 26.418 311.851C28.107 312.797 29.975 313.223 31.807 313.179ZM46.996 307.035C49.364 308.362 50.133 311.232 48.714 313.445C47.294 315.659 44.223 316.377 41.854 315.05C39.486 313.723 38.717 310.854 40.137 308.641C41.556 306.427 44.627 305.708 46.996 307.035ZM35.848 306.238C37.268 304.024 36.499 301.154 34.13 299.828C31.762 298.501 28.691 299.22 27.271 301.433C25.851 303.647 26.62 306.516 28.989 307.843C31.357 309.17 34.428 308.451 35.848 306.238Z" stroke="#002E63" stroke-opacity="0.2"/>
<path fill-rule="evenodd" clip-rule="evenodd" d="M31.7529 425.272C33.2569 425.249 34.7539 426.104 35.4159 427.366C36.2239 428.905 37.4929 430.253 39.1729 431.214C43.8839 433.906 50.0399 432.52 52.9219 428.117C55.8029 423.714 54.3199 417.962 49.6079 415.269C47.9279 414.308 46.0649 413.867 44.2319 413.896C42.7279 413.92 41.2309 413.064 40.5689 411.803C39.7609 410.265 38.4919 408.915 36.8119 407.954C32.0999 405.262 25.9449 406.648 23.0629 411.051C20.1819 415.454 21.6649 421.207 26.3769 423.899C28.0569 424.86 29.9199 425.301 31.7529 425.272ZM46.999 419.255C49.355 420.601 50.0969 423.478 48.6559 425.68C47.2149 427.88 44.1379 428.574 41.7819 427.227C39.4259 425.88 38.6839 423.005 40.1249 420.803C41.5659 418.601 44.644 417.909 46.999 419.255ZM35.8599 418.365C37.3009 416.163 36.5589 413.288 34.2029 411.941C31.8469 410.595 28.7699 411.288 27.3289 413.49C25.8879 415.69 26.6299 418.567 28.9849 419.913C31.3409 421.26 34.4189 420.567 35.8599 418.365Z" stroke="#002E63" stroke-opacity="0.2"/>
<path d="M-282 924.238C-282 1244.23 -4.4165 1503.64 338 1503.64C680.417 1503.64 958 1244.23 958 924.238C958 604.244 680.417 344.837 338 344.837C-4.4165 344.837 -282 604.244 -282 924.238Z" fill="#002E63"/>
</g>
<defs>
<clipPath id="clip0_4_66">
<rect width="999" height="676" fill="white" transform="matrix(0 1 -1 0 676 0)"/>
</clipPath>
</defs>
</svg>
