<svg width="1320" height="676" viewBox="0 0 1320 676" fill="none" xmlns="http://www.w3.org/2000/svg">
<path fill-rule="evenodd" clip-rule="evenodd" d="M579.36 46.6851C580.468 45.6674 582.195 45.3575 583.587 45.9269C585.284 46.6209 587.192 46.8569 589.13 46.5091C594.566 45.5338 598.182 40.3364 597.207 34.9003C596.231 29.4643 591.034 25.8481 585.598 26.8234C583.66 27.1712 581.953 28.0557 580.603 29.2964C579.496 30.3141 577.769 30.6239 576.377 30.0546C574.68 29.3606 572.772 29.1246 570.834 29.4723C565.398 30.4476 561.781 35.6451 562.757 41.0811C563.732 46.5172 568.929 50.1333 574.366 49.158C576.304 48.8103 578.011 47.9258 579.36 46.6851ZM586.481 31.7449C589.199 31.2572 591.798 33.0653 592.285 35.7833C592.773 38.5013 590.965 41.1 588.247 41.5877C585.529 42.0753 582.93 40.2673 582.442 37.5492C581.955 34.8312 583.763 32.2325 586.481 31.7449ZM577.521 38.4322C577.033 35.7142 574.435 33.9061 571.717 34.3938C568.999 34.8814 567.191 37.4801 567.678 40.1981C568.166 42.9162 570.765 44.7242 573.483 44.2366C576.201 43.7489 578.009 41.1502 577.521 38.4322Z" stroke="#002E63" stroke-opacity="0.2"/>
<path fill-rule="evenodd" clip-rule="evenodd" d="M697.903 46.4553C699.167 45.6394 700.921 45.626 702.197 46.4224C703.752 47.3933 705.593 47.9483 707.562 47.9332C713.084 47.8907 717.527 43.3793 717.485 37.8566C717.442 32.334 712.931 27.8913 707.408 27.9338C705.439 27.9489 703.607 28.5322 702.067 29.5268C700.804 30.3427 699.049 30.3562 697.773 29.5598C696.218 28.5889 694.378 28.0339 692.409 28.049C686.886 28.0914 682.443 32.6029 682.486 38.1255C682.528 43.6482 687.039 48.0908 692.562 48.0484C694.531 48.0333 696.363 47.45 697.903 46.4553ZM707.446 32.9336C710.208 32.9124 712.464 35.1337 712.485 37.8951C712.506 40.6564 710.285 42.9121 707.523 42.9333C704.762 42.9545 702.506 40.7332 702.485 37.9719C702.464 35.2105 704.685 32.9548 707.446 32.9336ZM697.485 38.0103C697.464 35.249 695.208 33.0276 692.447 33.0489C689.686 33.0701 687.464 35.3258 687.485 38.0871C687.507 40.8485 689.762 43.0698 692.524 43.0486C695.285 43.0273 697.506 40.7716 697.485 38.0103Z" stroke="#002E63" stroke-opacity="0.2"/>
<path fill-rule="evenodd" clip-rule="evenodd" d="M520.519 106.693C521.481 105.537 523.152 105 524.607 105.38C526.381 105.842 528.303 105.823 530.178 105.221C535.437 103.532 538.331 97.9008 536.642 92.6424C534.954 87.384 529.322 84.49 524.064 86.1785C522.189 86.7806 520.614 87.8839 519.441 89.2928C518.479 90.4486 516.808 90.9849 515.353 90.6055C513.579 90.143 511.657 90.1624 509.782 90.7645C504.523 92.453 501.629 98.0845 503.318 103.343C505.006 108.601 510.638 111.495 515.896 109.807C517.771 109.205 519.346 108.101 520.519 106.693ZM525.592 90.9391C528.221 90.0949 531.037 91.5418 531.881 94.171C532.726 96.8003 531.279 99.616 528.65 100.46C526.02 101.305 523.205 99.8575 522.36 97.2283C521.516 94.5991 522.963 91.7834 525.592 90.9391ZM517.6 98.757C516.755 96.1278 513.94 94.6808 511.31 95.5251C508.681 96.3693 507.234 99.1851 508.079 101.814C508.923 104.443 511.739 105.89 514.368 105.046C516.997 104.202 518.444 101.386 517.6 98.757Z" stroke="#002E63" stroke-opacity="0.2"/>
<path fill-rule="evenodd" clip-rule="evenodd" d="M639.193 106.673C640.32 105.677 642.052 105.401 643.433 105.997C645.116 106.724 647.019 106.998 648.964 106.688C654.418 105.819 658.135 100.693 657.265 95.2388C656.396 89.7848 651.271 86.0679 645.817 86.9369C643.872 87.2468 642.148 88.0978 640.774 89.3119C639.647 90.3078 637.915 90.5839 636.534 89.9875C634.851 89.2605 632.948 88.9874 631.003 89.2972C625.549 90.1663 621.832 95.2922 622.702 100.746C623.571 106.2 628.696 109.917 634.15 109.048C636.095 108.738 637.819 107.887 639.193 106.673ZM646.603 91.8746C649.33 91.4401 651.893 93.2986 652.328 96.0256C652.762 98.7526 650.904 101.316 648.177 101.75C645.45 102.185 642.887 100.326 642.452 97.5991C642.018 94.8721 643.876 92.3092 646.603 91.8746ZM637.515 98.3859C637.08 95.6589 634.517 93.8004 631.79 94.235C629.063 94.6695 627.205 97.2324 627.639 99.9594C628.074 102.686 630.637 104.545 633.364 104.11C636.091 103.676 637.949 101.113 637.515 98.3859Z" stroke="#002E63" stroke-opacity="0.2"/>
<path fill-rule="evenodd" clip-rule="evenodd" d="M461.637 166.552C462.442 165.281 464.029 164.533 465.521 164.722C467.34 164.951 469.244 164.683 471.025 163.844C476.021 161.49 478.163 155.532 475.809 150.536C473.455 145.54 467.497 143.398 462.501 145.751C460.72 146.591 459.301 147.888 458.32 149.437C457.515 150.707 455.928 151.455 454.436 151.267C452.617 151.037 450.713 151.305 448.932 152.144C443.935 154.498 441.793 160.457 444.147 165.453C446.501 170.449 452.459 172.591 457.455 170.237C459.237 169.398 460.655 168.1 461.637 166.552ZM464.632 150.275C467.13 149.098 470.109 150.169 471.286 152.667C472.463 155.165 471.392 158.144 468.894 159.321C466.396 160.498 463.417 159.427 462.24 156.929C461.063 154.431 462.134 151.452 464.632 150.275ZM457.717 159.06C456.54 156.562 453.561 155.491 451.063 156.668C448.564 157.844 447.493 160.824 448.67 163.322C449.847 165.82 452.826 166.891 455.324 165.714C457.823 164.537 458.894 161.558 457.717 159.06Z" stroke="#002E63" stroke-opacity="0.2"/>
<path fill-rule="evenodd" clip-rule="evenodd" d="M580.461 166.698C581.431 165.549 583.105 165.024 584.558 165.413C586.329 165.888 588.251 165.882 590.13 165.292C595.4 163.64 598.332 158.029 596.68 152.759C595.028 147.489 589.416 144.556 584.146 146.208C582.267 146.798 580.686 147.89 579.503 149.291C578.532 150.44 576.858 150.965 575.406 150.576C573.635 150.101 571.712 150.107 569.833 150.696C564.564 152.349 561.631 157.96 563.283 163.23C564.936 168.5 570.547 171.432 575.817 169.78C577.696 169.191 579.278 168.099 580.461 166.698ZM585.642 150.979C588.277 150.153 591.083 151.62 591.909 154.255C592.735 156.889 591.269 159.695 588.634 160.521C585.999 161.348 583.193 159.881 582.367 157.246C581.541 154.611 583.007 151.806 585.642 150.979ZM577.596 158.742C576.77 156.107 573.964 154.641 571.329 155.467C568.694 156.293 567.228 159.099 568.054 161.734C568.88 164.369 571.686 165.835 574.321 165.009C576.956 164.183 578.422 161.377 577.596 158.742Z" stroke="#002E63" stroke-opacity="0.2"/>
<path fill-rule="evenodd" clip-rule="evenodd" d="M699.147 166.671C700.28 165.681 702.014 165.414 703.391 166.018C705.07 166.754 706.972 167.037 708.918 166.738C714.377 165.899 718.121 160.793 717.282 155.334C716.442 149.876 711.337 146.131 705.878 146.971C703.932 147.27 702.203 148.112 700.823 149.318C699.691 150.308 697.957 150.575 696.579 149.971C694.9 149.235 692.999 148.951 691.052 149.251C685.594 150.09 681.849 155.196 682.688 160.654C683.528 166.113 688.634 169.858 694.092 169.018C696.039 168.719 697.767 167.877 699.147 166.671ZM706.638 151.912C709.367 151.493 711.92 153.365 712.34 156.094C712.76 158.824 710.887 161.377 708.158 161.796C705.429 162.216 702.876 160.344 702.456 157.614C702.036 154.885 703.909 152.332 706.638 151.912ZM697.514 158.374C697.094 155.645 694.542 153.773 691.812 154.192C689.083 154.612 687.211 157.165 687.63 159.894C688.05 162.624 690.603 164.496 693.332 164.076C696.062 163.657 697.934 161.104 697.514 158.374Z" stroke="#002E63" stroke-opacity="0.2"/>
<path fill-rule="evenodd" clip-rule="evenodd" d="M521.663 226.549C522.464 225.276 524.049 224.524 525.541 224.708C527.361 224.932 529.264 224.659 531.043 223.814C536.033 221.446 538.158 215.482 535.79 210.493C533.422 205.503 527.457 203.378 522.468 205.746C520.689 206.59 519.274 207.892 518.297 209.444C517.496 210.716 515.911 211.468 514.418 211.284C512.598 211.06 510.696 211.333 508.917 212.178C503.927 214.546 501.802 220.51 504.17 225.499C506.538 230.489 512.502 232.614 517.492 230.246C519.271 229.402 520.686 228.1 521.663 226.549ZM524.612 210.263C527.106 209.079 530.088 210.142 531.272 212.636C532.456 215.131 531.394 218.113 528.899 219.297C526.405 220.481 523.422 219.419 522.238 216.924C521.054 214.429 522.117 211.447 524.612 210.263ZM517.721 219.068C516.537 216.573 513.555 215.511 511.06 216.695C508.566 217.879 507.503 220.861 508.687 223.356C509.871 225.85 512.853 226.913 515.348 225.729C517.843 224.545 518.905 221.563 517.721 219.068Z" stroke="#002E63" stroke-opacity="0.2"/>
<path fill-rule="evenodd" clip-rule="evenodd" d="M640.538 226.695C641.498 225.538 643.168 224.998 644.624 225.375C646.398 225.834 648.321 225.811 650.195 225.206C655.45 223.508 658.334 217.871 656.636 212.616C654.938 207.361 649.301 204.477 644.046 206.175C642.172 206.78 640.6 207.886 639.429 209.297C638.469 210.455 636.799 210.994 635.343 210.617C633.568 210.158 631.646 210.181 629.772 210.786C624.517 212.484 621.633 218.121 623.331 223.376C625.029 228.632 630.666 231.516 635.921 229.818C637.795 229.212 639.367 228.106 640.538 226.695ZM645.583 210.932C648.211 210.084 651.029 211.525 651.878 214.153C652.727 216.781 651.285 219.599 648.657 220.448C646.03 221.297 643.211 219.855 642.362 217.228C641.513 214.6 642.955 211.781 645.583 210.932ZM637.604 218.765C636.755 216.137 633.937 214.695 631.309 215.544C628.682 216.393 627.24 219.212 628.089 221.839C628.938 224.467 631.756 225.909 634.384 225.06C637.012 224.211 638.453 221.392 637.604 218.765Z" stroke="#002E63" stroke-opacity="0.2"/>
<path fill-rule="evenodd" clip-rule="evenodd" d="M462.772 286.254C463.399 284.887 464.871 283.933 466.375 283.919C468.208 283.901 470.059 283.38 471.711 282.309C476.345 279.305 477.667 273.113 474.663 268.478C471.658 263.844 465.466 262.523 460.832 265.527C459.179 266.598 457.948 268.074 457.184 269.741C456.557 271.108 455.085 272.062 453.581 272.077C451.748 272.094 449.898 272.615 448.245 273.686C443.611 276.69 442.289 282.883 445.294 287.517C448.298 292.151 454.49 293.473 459.124 290.468C460.777 289.397 462.008 287.921 462.772 286.254ZM463.552 269.722C465.869 268.22 468.965 268.881 470.467 271.198C471.969 273.515 471.308 276.611 468.991 278.113C466.674 279.616 463.578 278.955 462.076 276.638C460.574 274.321 461.234 271.224 463.552 269.722ZM457.88 279.357C456.378 277.04 453.282 276.38 450.965 277.882C448.648 279.384 447.987 282.48 449.489 284.797C450.991 287.114 454.087 287.775 456.405 286.273C458.722 284.771 459.382 281.675 457.88 279.357Z" stroke="#002E63" stroke-opacity="0.2"/>
<path fill-rule="evenodd" clip-rule="evenodd" d="M581.822 286.518C582.6 285.231 584.171 284.449 585.666 284.606C587.49 284.796 589.388 284.488 591.151 283.611C596.095 281.151 598.11 275.148 595.65 270.204C593.19 265.259 587.188 263.244 582.243 265.704C580.48 266.581 579.089 267.909 578.141 269.478C577.364 270.765 575.793 271.547 574.297 271.39C572.473 271.2 570.576 271.508 568.813 272.385C563.868 274.845 561.853 280.847 564.313 285.792C566.773 290.737 572.776 292.752 577.721 290.292C579.484 289.415 580.874 288.087 581.822 286.518ZM584.47 270.181C586.942 268.951 589.944 269.958 591.173 272.431C592.403 274.903 591.396 277.904 588.924 279.134C586.451 280.364 583.45 279.357 582.22 276.884C580.99 274.412 581.997 271.411 584.47 270.181ZM577.743 279.111C576.513 276.639 573.512 275.632 571.04 276.862C568.567 278.092 567.56 281.093 568.79 283.565C570.02 286.038 573.021 287.045 575.494 285.815C577.966 284.585 578.973 281.584 577.743 279.111Z" stroke="#002E63" stroke-opacity="0.2"/>
<path fill-rule="evenodd" clip-rule="evenodd" d="M700.797 286.676C701.722 285.491 703.375 284.902 704.842 285.236C706.63 285.642 708.55 285.563 710.405 284.902C715.608 283.049 718.324 277.33 716.471 272.127C714.618 266.924 708.899 264.208 703.696 266.061C701.841 266.722 700.302 267.874 699.173 269.319C698.248 270.504 696.595 271.093 695.129 270.759C693.341 270.353 691.42 270.433 689.565 271.093C684.362 272.946 681.647 278.666 683.499 283.868C685.352 289.071 691.072 291.787 696.275 289.934C698.13 289.274 699.669 288.121 700.797 286.676ZM705.373 270.771C707.975 269.845 710.834 271.203 711.761 273.804C712.687 276.406 711.329 279.265 708.728 280.192C706.127 281.118 703.267 279.76 702.34 277.159C701.414 274.558 702.772 271.698 705.373 270.771ZM697.63 278.836C696.704 276.235 693.844 274.877 691.242 275.803C688.641 276.73 687.283 279.59 688.21 282.191C689.136 284.793 691.996 286.15 694.597 285.224C697.199 284.298 698.556 281.438 697.63 278.836Z" stroke="#002E63" stroke-opacity="0.2"/>
<path fill-rule="evenodd" clip-rule="evenodd" d="M522.978 346.184C523.571 344.802 525.019 343.811 526.522 343.76C528.354 343.697 530.191 343.13 531.816 342.018C536.374 338.899 537.542 332.676 534.423 328.118C531.305 323.56 525.082 322.393 520.523 325.511C518.898 326.623 517.704 328.13 516.981 329.815C516.389 331.197 514.941 332.188 513.438 332.239C511.605 332.302 509.769 332.869 508.143 333.981C503.585 337.099 502.418 343.322 505.536 347.881C508.655 352.439 514.878 353.606 519.436 350.488C521.061 349.376 522.256 347.869 522.978 346.184ZM523.347 329.638C525.626 328.079 528.737 328.662 530.296 330.941C531.856 333.22 531.272 336.332 528.993 337.891C526.714 339.45 523.602 338.867 522.043 336.588C520.484 334.309 521.067 331.197 523.347 329.638ZM517.916 339.411C516.357 337.132 513.246 336.548 510.966 338.107C508.687 339.667 508.104 342.778 509.663 345.057C511.222 347.336 514.334 347.92 516.613 346.361C518.892 344.802 519.476 341.69 517.916 339.411Z" stroke="#002E63" stroke-opacity="0.2"/>
<path fill-rule="evenodd" clip-rule="evenodd" d="M642.149 346.442C642.877 345.126 644.417 344.285 645.917 344.384C647.747 344.504 649.631 344.123 651.359 343.179C656.206 340.532 657.989 334.456 655.341 329.609C652.693 324.763 646.618 322.98 641.771 325.628C640.043 326.572 638.704 327.952 637.817 329.556C637.089 330.872 635.55 331.713 634.049 331.615C632.22 331.494 630.335 331.875 628.607 332.819C623.76 335.467 621.978 341.542 624.626 346.389C627.273 351.236 633.349 353.019 638.196 350.371C639.924 349.427 641.262 348.047 642.149 346.442ZM644.168 330.016C646.591 328.692 649.629 329.583 650.953 332.006C652.277 334.43 651.386 337.468 648.962 338.791C646.539 340.115 643.501 339.224 642.177 336.801C640.853 334.377 641.745 331.34 644.168 330.016ZM637.789 339.198C636.465 336.774 633.428 335.883 631.004 337.207C628.581 338.531 627.69 341.569 629.013 343.992C630.337 346.415 633.375 347.307 635.799 345.983C638.222 344.659 639.113 341.621 637.789 339.198Z" stroke="#002E63" stroke-opacity="0.2"/>
<path fill-rule="evenodd" clip-rule="evenodd" d="M464.002 405.733C464.412 404.286 465.721 403.118 467.205 402.874C469.014 402.577 470.763 401.779 472.232 400.467C476.353 396.79 476.712 390.468 473.034 386.348C469.356 382.228 463.035 381.869 458.915 385.546C457.446 386.858 456.455 388.505 455.954 390.269C455.544 391.716 454.235 392.884 452.751 393.128C450.942 393.425 449.193 394.224 447.724 395.535C443.604 399.212 443.245 405.534 446.922 409.654C450.6 413.775 456.922 414.133 461.042 410.456C462.511 409.144 463.502 407.497 464.002 405.733ZM462.244 389.277C464.304 387.438 467.465 387.617 469.304 389.677C471.143 391.738 470.963 394.898 468.903 396.737C466.843 398.576 463.682 398.396 461.843 396.336C460.004 394.276 460.184 391.115 462.244 389.277ZM458.113 399.666C456.274 397.606 453.114 397.426 451.053 399.265C448.993 401.104 448.814 404.265 450.653 406.325C452.491 408.385 455.652 408.564 457.712 406.726C459.772 404.887 459.952 401.726 458.113 399.666Z" stroke="#002E63" stroke-opacity="0.2"/>
<path fill-rule="evenodd" clip-rule="evenodd" d="M583.328 406.049C583.861 404.643 585.265 403.591 586.765 403.475C588.593 403.334 590.403 402.689 591.979 401.508C596.4 398.197 597.299 391.929 593.987 387.509C590.676 383.089 584.409 382.19 579.989 385.501C578.413 386.682 577.284 388.238 576.635 389.953C576.102 391.359 574.698 392.411 573.198 392.527C571.37 392.668 569.559 393.314 567.983 394.494C563.563 397.805 562.664 404.073 565.975 408.493C569.287 412.913 575.554 413.812 579.974 410.501C581.55 409.32 582.679 407.764 583.328 406.049ZM582.986 389.503C585.196 387.847 588.33 388.297 589.986 390.507C591.641 392.717 591.192 395.851 588.982 397.506C586.772 399.162 583.638 398.712 581.982 396.502C580.327 394.292 580.776 391.158 582.986 389.503ZM577.981 399.5C576.325 397.29 573.191 396.84 570.981 398.496C568.771 400.151 568.322 403.285 569.977 405.495C571.633 407.705 574.766 408.155 576.977 406.499C579.187 404.844 579.636 401.71 577.981 399.5Z" stroke="#002E63" stroke-opacity="0.2"/>
<path fill-rule="evenodd" clip-rule="evenodd" d="M702.682 406.29C703.325 404.93 704.808 403.993 706.312 403.997C708.145 404.001 710.002 403.502 711.666 402.45C716.336 399.5 717.73 393.324 714.78 388.655C711.83 383.986 705.654 382.592 700.985 385.541C699.32 386.593 698.071 388.055 697.288 389.712C696.645 391.072 695.162 392.009 693.658 392.006C691.824 392.001 689.968 392.501 688.303 393.553C683.634 396.502 682.24 402.679 685.19 407.348C688.14 412.017 694.316 413.411 698.985 410.461C700.65 409.409 701.898 407.948 702.682 406.29ZM703.655 389.768C705.99 388.294 709.078 388.991 710.553 391.325C712.028 393.66 711.331 396.748 708.996 398.223C706.661 399.698 703.573 399.001 702.098 396.666C700.624 394.331 701.321 391.243 703.655 389.768ZM697.871 399.336C696.396 397.002 693.308 396.305 690.974 397.78C688.639 399.255 687.942 402.343 689.417 404.677C690.892 407.012 693.98 407.709 696.315 406.234C698.649 404.759 699.346 401.671 697.871 399.336Z" stroke="#002E63" stroke-opacity="0.2"/>
<path fill-rule="evenodd" clip-rule="evenodd" d="M524.345 465.547C524.691 464.083 525.946 462.858 527.417 462.548C529.212 462.17 530.923 461.294 532.332 459.918C536.284 456.06 536.36 449.729 532.501 445.777C528.643 441.826 522.312 441.75 518.36 445.608C516.951 446.984 516.035 448.674 515.614 450.458C515.269 451.922 514.014 453.148 512.542 453.458C510.748 453.836 509.036 454.711 507.627 456.087C503.676 459.945 503.6 466.276 507.458 470.228C511.316 474.18 517.647 474.255 521.599 470.397C523.008 469.022 523.924 467.332 524.345 465.547ZM521.853 449.186C523.829 447.256 526.995 447.294 528.924 449.27C530.853 451.246 530.815 454.412 528.839 456.341C526.863 458.27 523.698 458.232 521.769 456.256C519.839 454.28 519.877 451.115 521.853 449.186ZM518.191 459.749C516.262 457.773 513.096 457.735 511.12 459.664C509.144 461.594 509.107 464.759 511.036 466.735C512.965 468.711 516.13 468.749 518.106 466.82C520.082 464.891 520.12 461.725 518.191 459.749Z" stroke="#002E63" stroke-opacity="0.2"/>
<path fill-rule="evenodd" clip-rule="evenodd" d="M643.841 465.819C644.282 464.381 645.615 463.241 647.104 463.029C648.919 462.771 650.685 462.01 652.182 460.731C656.38 457.142 656.874 450.83 653.285 446.631C649.697 442.433 643.384 441.939 639.186 445.528C637.689 446.808 636.663 448.433 636.126 450.186C635.684 451.624 634.351 452.764 632.862 452.976C631.047 453.235 629.281 453.995 627.784 455.275C623.586 458.863 623.092 465.176 626.681 469.374C630.27 473.572 636.582 474.066 640.78 470.477C642.277 469.198 643.303 467.572 643.841 465.819ZM642.435 449.329C644.534 447.534 647.69 447.781 649.485 449.88C651.279 451.979 651.032 455.136 648.933 456.93C646.834 458.724 643.678 458.477 641.883 456.378C640.089 454.279 640.336 451.123 642.435 449.329ZM638.083 459.627C636.288 457.528 633.132 457.281 631.033 459.075C628.934 460.87 628.687 464.026 630.482 466.125C632.276 468.224 635.432 468.471 637.531 466.677C639.63 464.882 639.877 461.726 638.083 459.627Z" stroke="#002E63" stroke-opacity="0.2"/>
<path fill-rule="evenodd" clip-rule="evenodd" d="M465.219 524.97C465.385 523.475 466.484 522.107 467.908 521.623C469.644 521.032 471.238 519.957 472.471 518.422C475.93 514.117 475.245 507.822 470.94 504.363C466.635 500.904 460.34 501.589 456.881 505.894C455.647 507.429 454.941 509.217 454.737 511.039C454.571 512.534 453.472 513.901 452.048 514.386C450.312 514.977 448.718 516.052 447.485 517.587C444.025 521.892 444.711 528.186 449.016 531.646C453.321 535.105 459.616 534.42 463.075 530.115C464.309 528.58 465.015 526.792 465.219 524.97ZM460.778 509.026C462.508 506.874 465.655 506.531 467.808 508.261C469.96 509.99 470.303 513.138 468.573 515.29C466.844 517.443 463.697 517.785 461.544 516.056C459.391 514.326 459.049 511.179 460.778 509.026ZM458.412 519.953C456.259 518.223 453.112 518.566 451.382 520.719C449.653 522.871 449.996 526.019 452.148 527.748C454.301 529.478 457.448 529.135 459.178 526.983C460.907 524.83 460.565 521.683 458.412 519.953Z" stroke="#002E63" stroke-opacity="0.2"/>
<path fill-rule="evenodd" clip-rule="evenodd" d="M584.813 525.259C585.065 523.777 586.241 522.475 587.69 522.073C589.457 521.583 591.11 520.601 592.43 519.14C596.131 515.041 595.809 508.717 591.71 505.016C587.611 501.314 581.287 501.637 577.586 505.736C576.266 507.197 575.458 508.942 575.15 510.749C574.898 512.232 573.722 513.534 572.273 513.936C570.506 514.426 568.853 515.407 567.533 516.869C563.832 520.968 564.154 527.291 568.253 530.993C572.352 534.694 578.676 534.372 582.377 530.273C583.697 528.811 584.505 527.067 584.813 525.259ZM581.297 509.087C583.147 507.037 586.309 506.876 588.359 508.727C590.408 510.577 590.569 513.739 588.719 515.789C586.868 517.838 583.706 517.999 581.657 516.149C579.607 514.298 579.446 511.136 581.297 509.087ZM578.306 519.86C576.256 518.009 573.095 518.17 571.244 520.22C569.393 522.269 569.555 525.431 571.604 527.282C573.654 529.132 576.815 528.971 578.666 526.922C580.517 524.872 580.355 521.71 578.306 519.86Z" stroke="#002E63" stroke-opacity="0.2"/>
<path fill-rule="evenodd" clip-rule="evenodd" d="M704.52 525.448C704.832 523.977 706.06 522.723 707.524 522.38C709.309 521.961 711 521.047 712.377 519.64C716.241 515.693 716.173 509.362 712.226 505.498C708.279 501.635 701.948 501.703 698.085 505.65C696.707 507.057 695.83 508.767 695.449 510.561C695.137 512.032 693.91 513.286 692.446 513.629C690.661 514.048 688.97 514.962 687.592 516.369C683.729 520.316 683.797 526.647 687.744 530.51C691.69 534.374 698.022 534.306 701.885 530.359C703.262 528.952 704.14 527.242 704.52 525.448ZM701.658 509.147C703.59 507.174 706.755 507.14 708.729 509.072C710.702 511.003 710.736 514.169 708.804 516.142C706.873 518.116 703.707 518.15 701.734 516.218C699.76 514.286 699.726 511.121 701.658 509.147ZM698.236 519.791C696.263 517.859 693.097 517.893 691.165 519.867C689.234 521.84 689.268 525.006 691.241 526.937C693.214 528.869 696.38 528.835 698.312 526.862C700.243 524.888 700.209 521.723 698.236 519.791Z" stroke="#002E63" stroke-opacity="0.2"/>
<path fill-rule="evenodd" clip-rule="evenodd" d="M525.631 584.643C525.707 583.141 526.722 581.71 528.113 581.14C529.81 580.446 531.336 579.277 532.475 577.67C535.669 573.164 534.605 566.922 530.099 563.729C525.593 560.535 519.352 561.599 516.158 566.105C515.019 567.711 514.422 569.539 514.329 571.37C514.252 572.872 513.238 574.303 511.846 574.873C510.149 575.567 508.623 576.736 507.484 578.343C504.291 582.849 505.354 589.09 509.86 592.284C514.366 595.477 520.608 594.414 523.801 589.908C524.94 588.301 525.537 586.474 525.631 584.643ZM520.237 568.996C521.834 566.743 524.955 566.211 527.208 567.808C529.461 569.405 529.993 572.526 528.396 574.779C526.799 577.032 523.678 577.563 521.425 575.967C519.172 574.37 518.641 571.249 520.237 568.996ZM518.534 580.046C516.281 578.449 513.16 578.981 511.563 581.234C509.967 583.487 510.499 586.608 512.751 588.205C515.004 589.801 518.125 589.269 519.722 587.017C521.319 584.764 520.787 581.643 518.534 580.046Z" stroke="#002E63" stroke-opacity="0.2"/>
<path fill-rule="evenodd" clip-rule="evenodd" d="M645.397 584.838C645.526 583.339 646.59 581.945 648.002 581.424C649.722 580.79 651.288 579.675 652.483 578.11C655.833 573.719 654.989 567.444 650.598 564.094C646.208 560.744 639.933 561.587 636.582 565.978C635.388 567.543 634.727 569.349 634.569 571.175C634.44 572.674 633.376 574.068 631.965 574.589C630.244 575.223 628.678 576.338 627.483 577.903C624.133 582.294 624.977 588.569 629.368 591.919C633.758 595.269 640.033 594.426 643.384 590.035C644.578 588.469 645.239 586.664 645.397 584.838ZM640.557 569.011C642.233 566.816 645.37 566.394 647.565 568.069C649.761 569.744 650.183 572.882 648.508 575.077C646.832 577.272 643.695 577.694 641.5 576.019C639.304 574.344 638.882 571.206 640.557 569.011ZM638.467 579.994C636.271 578.319 633.134 578.741 631.458 580.936C629.783 583.131 630.205 586.269 632.401 587.944C634.596 589.619 637.734 589.197 639.409 587.002C641.084 584.807 640.662 581.669 638.467 579.994Z" stroke="#002E63" stroke-opacity="0.2"/>
<path fill-rule="evenodd" clip-rule="evenodd" d="M586.123 644.193C586.085 642.689 586.987 641.184 588.331 640.51C589.97 639.688 591.402 638.405 592.414 636.716C595.254 631.98 593.716 625.838 588.979 622.998C584.242 620.158 578.1 621.696 575.26 626.433C574.248 628.122 573.792 629.99 573.839 631.823C573.878 633.326 572.976 634.831 571.632 635.505C569.993 636.328 568.561 637.61 567.548 639.299C564.709 644.036 566.247 650.178 570.984 653.017C575.721 655.857 581.863 654.319 584.702 649.582C585.715 647.893 586.171 646.025 586.123 644.193ZM579.549 629.004C580.969 626.636 584.04 625.867 586.408 627.286C588.777 628.706 589.546 631.777 588.126 634.146C586.706 636.514 583.635 637.283 581.267 635.863C578.898 634.444 578.129 631.373 579.549 629.004ZM578.696 640.152C576.327 638.732 573.256 639.501 571.837 641.87C570.417 644.238 571.186 647.309 573.554 648.729C575.923 650.149 578.994 649.38 580.414 647.011C581.833 644.643 581.064 641.572 578.696 640.152Z" stroke="#002E63" stroke-opacity="0.2"/>
<path fill-rule="evenodd" clip-rule="evenodd" d="M706.071 644.247C706.046 642.743 706.961 641.246 708.312 640.584C709.958 639.776 711.401 638.507 712.429 636.827C715.31 632.116 713.827 625.96 709.115 623.078C704.404 620.197 698.249 621.68 695.367 626.392C694.339 628.072 693.867 629.935 693.898 631.768C693.923 633.272 693.008 634.769 691.658 635.431C690.012 636.239 688.568 637.508 687.54 639.188C684.659 643.9 686.142 650.055 690.854 652.937C695.565 655.818 701.721 654.335 704.602 649.623C705.63 647.943 706.102 646.08 706.071 644.247ZM699.632 629.001C701.073 626.645 704.151 625.903 706.507 627.344C708.862 628.785 709.604 631.862 708.163 634.218C706.722 636.574 703.645 637.316 701.289 635.875C698.933 634.434 698.192 631.356 699.632 629.001ZM698.68 640.14C696.324 638.699 693.247 639.441 691.806 641.797C690.365 644.153 691.107 647.23 693.463 648.671C695.818 650.112 698.896 649.37 700.337 647.015C701.778 644.659 701.036 641.581 698.68 640.14Z" stroke="#002E63" stroke-opacity="0.2"/>
<circle cx="1240" cy="338" r="620" fill="#002E63"/>
</svg>
