<svg width="268" height="352" viewBox="0 0 268 352" fill="none" xmlns="http://www.w3.org/2000/svg">
<g opacity="0.1">
<mask id="mask0_613_1984" style="mask-type:alpha" maskUnits="userSpaceOnUse" x="0" y="0" width="268" height="352">
<path d="M1.13965 0.5H244C256.979 0.5 267.5 11.0213 267.5 24V351.022H50.6396C23.3015 351.022 1.13965 328.86 1.13965 301.522V0.5Z" fill="url(#paint0_linear_613_1984)" stroke="#6246E5"/>
</mask>
<g mask="url(#mask0_613_1984)">
<path d="M335.675 178.32C335.675 229.016 294.053 270.124 242.697 270.124C191.34 270.124 149.719 229.016 149.719 178.32C149.719 127.625 191.34 86.5168 242.697 86.5168C294.053 86.5168 335.675 127.625 335.675 178.32Z" stroke="#6246E5"/>
<path d="M339.365 168.604C339.365 225.336 292.787 271.338 235.317 271.338C177.847 271.338 131.269 225.336 131.269 168.604C131.269 111.871 177.847 65.8699 235.317 65.8699C292.787 65.8699 339.365 111.871 339.365 168.604Z" stroke="#6246E5"/>
<path d="M343.055 160.71C343.055 222.808 292.072 273.16 229.167 273.16C166.263 273.16 115.279 222.808 115.279 160.71C115.279 98.6111 166.263 48.2595 229.167 48.2595C292.072 48.2595 343.055 98.6111 343.055 160.71Z" stroke="#6246E5"/>
<path d="M345.515 149.171C345.515 215.965 290.677 270.123 223.018 270.123C155.358 270.123 100.52 215.965 100.52 149.171C100.52 82.3776 155.358 28.2197 223.018 28.2197C290.677 28.2197 345.515 82.3776 345.515 149.171Z" stroke="#6246E5"/>
<path d="M347.975 137.937C347.975 209.259 289.42 267.087 217.175 267.087C144.93 267.087 86.375 209.259 86.375 137.937C86.375 66.6158 144.93 8.7876 217.175 8.7876C289.42 8.7876 347.975 66.6158 347.975 137.937Z" stroke="#6246E5"/>
<path d="M351.05 125.185C351.05 203.549 286.713 267.087 207.335 267.087C127.958 267.087 63.6206 203.549 63.6206 125.185C63.6206 46.8204 127.958 -16.7173 207.335 -16.7173C286.713 -16.7173 351.05 46.8204 351.05 125.185Z" stroke="#6246E5"/>
</g>
</g>
<defs>
<linearGradient id="paint0_linear_613_1984" x1="190.262" y1="9.86234" x2="9.55737" y2="356.175" gradientUnits="userSpaceOnUse">
<stop stop-color="#747DEF"/>
<stop offset="1" stop-color="#5E3BE1"/>
</linearGradient>
</defs>
</svg>
