<svg width="415" height="369" viewBox="0 0 415 369" fill="none" xmlns="http://www.w3.org/2000/svg">
<g opacity="0.1">
<mask id="mask0_613_1993" style="mask-type:alpha" maskUnits="userSpaceOnUse" x="0" y="0" width="415" height="361">
<rect x="413.61" y="0.5" width="360" height="413.11" transform="rotate(90 413.61 0.5)" fill="url(#paint0_linear_613_1993)" stroke="#6246E5"/>
</mask>
<g mask="url(#mask0_613_1993)">
<path d="M112.314 434.189C52.6036 434.189 4.0765 377.975 4.0765 308.471C4.07651 238.966 52.6036 182.753 112.314 182.753C172.025 182.753 220.552 238.966 220.552 308.471C220.552 377.975 172.025 434.189 112.314 434.189Z" stroke="#6246E5"/>
<path d="M123.761 439.171C56.9383 439.171 2.64605 376.265 2.64605 298.506C2.64605 220.746 56.9383 157.841 123.761 157.841C190.583 157.841 244.875 220.746 244.875 298.506C244.875 376.265 190.583 439.171 123.761 439.171Z" stroke="#6246E5"/>
<path d="M133.061 444.153C59.9168 444.153 0.499989 375.3 0.499993 290.203C0.499997 205.105 59.9168 136.252 133.061 136.252C206.205 136.252 265.622 205.105 265.622 290.203C265.622 375.3 206.205 444.153 133.061 444.153Z" stroke="#6246E5"/>
<path d="M146.653 447.475C67.9778 447.475 4.07698 373.416 4.07699 281.899C4.07699 190.381 67.9779 116.323 146.653 116.323C225.328 116.323 289.229 190.381 289.229 281.899C289.229 373.417 225.328 447.475 146.653 447.475Z" stroke="#6246E5"/>
<path d="M159.888 450.796C75.8785 450.796 7.6538 371.719 7.6538 274.01C7.65381 176.301 75.8785 97.2236 159.888 97.2236C243.897 97.2236 312.121 176.301 312.121 274.01C312.121 371.719 243.897 450.796 159.888 450.796Z" stroke="#6246E5"/>
<path d="M174.91 454.948C82.6045 454.948 7.65373 368.064 7.65374 260.724C7.65374 153.385 82.6045 66.5 174.91 66.5C267.216 66.5 342.167 153.385 342.167 260.724C342.167 368.064 267.216 454.948 174.91 454.948Z" stroke="#6246E5"/>
</g>
</g>
<defs>
<linearGradient id="paint0_linear_613_1993" x1="670.145" y1="11.6183" x2="474.411" y2="441.562" gradientUnits="userSpaceOnUse">
<stop stop-color="#747DEF"/>
<stop offset="1" stop-color="#5E3BE1"/>
</linearGradient>
</defs>
</svg>
