<svg width="24" height="24" viewBox="0 0 24 24" fill="none" xmlns="http://www.w3.org/2000/svg">
<path d="M11.9951 22.3125C13.4144 22.3125 14.7458 22.0423 15.9893 21.502C17.2327 20.9681 18.3265 20.2259 19.2705 19.2754C20.221 18.3314 20.9665 17.2376 21.5068 15.9941C22.0472 14.7507 22.3174 13.4193 22.3174 12C22.3174 10.5872 22.0472 9.25911 21.5068 8.01562C20.9665 6.77214 20.221 5.67513 19.2705 4.72461C18.3265 3.77409 17.2295 3.0319 15.9795 2.49805C14.736 1.95768 13.4079 1.6875 11.9951 1.6875C10.5824 1.6875 9.25098 1.95768 8.00098 2.49805C6.75749 3.0319 5.66048 3.77409 4.70996 4.72461C3.76595 5.67513 3.02376 6.77214 2.4834 8.01562C1.94954 9.25911 1.68262 10.5872 1.68262 12C1.68262 13.4193 1.94954 14.7507 2.4834 15.9941C3.02376 17.2376 3.76921 18.3314 4.71973 19.2754C5.67025 20.2259 6.76725 20.9681 8.01074 21.502C9.25423 22.0423 10.5824 22.3125 11.9951 22.3125ZM10.9209 16.8926C10.6995 16.8926 10.501 16.847 10.3252 16.7559C10.1494 16.6582 9.9834 16.515 9.82715 16.3262L7.54199 13.5918C7.43131 13.4551 7.34994 13.3216 7.29785 13.1914C7.24577 13.0612 7.21973 12.9245 7.21973 12.7812C7.21973 12.4818 7.32715 12.2279 7.54199 12.0195C7.75684 11.8047 8.01074 11.6973 8.30371 11.6973C8.486 11.6973 8.64551 11.7331 8.78223 11.8047C8.92546 11.8763 9.06217 11.9935 9.19238 12.1562L10.9014 14.2461L14.7002 8.20117C14.9606 7.78451 15.2829 7.57617 15.667 7.57617C15.96 7.57617 16.2171 7.67383 16.4385 7.86914C16.6663 8.06445 16.7803 8.31185 16.7803 8.61133C16.7803 8.73503 16.7542 8.86198 16.7021 8.99219C16.6566 9.1224 16.5947 9.24935 16.5166 9.37305L11.9756 16.3066C11.8454 16.4954 11.6891 16.6419 11.5068 16.7461C11.3311 16.8438 11.1357 16.8926 10.9209 16.8926Z" fill="white"/>
</svg>
