<svg width="44" height="44" viewBox="0 0 44 44" fill="none" xmlns="http://www.w3.org/2000/svg">
<path fill-rule="evenodd" clip-rule="evenodd" d="M31.2867 33.7402C24.8123 33.7402 19.4444 28.4757 19.3243 22.0006C19.2502 20.2964 18.521 18.6866 17.2887 17.5071C16.0565 16.3275 14.4164 15.6693 12.7106 15.6696C11.0048 15.67 9.36503 16.329 8.13331 17.5091C6.90159 18.6892 6.17306 20.2993 6.09969 22.0035L6.09169 22.2634H0.75L0.754368 21.9882C0.872295 15.5146 6.23655 10.25 12.7131 10.25C19.1897 10.25 24.559 15.5153 24.6777 21.9889C24.7351 23.7051 25.4573 25.3318 26.6918 26.5253C27.9263 27.7189 29.5764 28.3859 31.2936 28.3854C33.0107 28.385 34.6604 27.7171 35.8943 26.5228C37.1281 25.3286 37.8495 23.7015 37.9059 21.9853L37.9132 21.7254H43.2542L43.2484 22.0006C43.1319 28.4757 37.7654 33.7402 31.2867 33.7402Z" fill="#002E63"/>
<path fill-rule="evenodd" clip-rule="evenodd" d="M12.7131 33.7402C6.23436 33.7402 0.872295 28.4757 0.754368 22.0006L0.75 21.7254H6.08877L6.09678 21.9853C6.15087 23.7037 6.87153 25.3337 8.10622 26.5301C9.34091 27.7266 10.9927 28.3956 12.712 28.3956C14.4313 28.3956 16.0831 27.7266 17.3178 26.5301C18.5525 25.3337 19.2732 23.7037 19.3272 21.9853C19.4474 15.5153 24.8152 10.2507 31.2896 10.2507C37.764 10.2507 43.1319 15.5153 43.2484 21.9889L43.2542 22.2641H37.911L37.9038 22.0006C37.8468 20.2844 37.125 18.6575 35.8908 17.4636C34.6567 16.2697 33.0068 15.6023 31.2896 15.6023C29.5725 15.6023 27.9226 16.2697 26.6884 17.4636C25.4542 18.6575 24.7324 20.2844 24.6755 22.0006C24.559 28.4757 19.1933 33.7402 12.7131 33.7402Z" fill="#FFBF00"/>
</svg>
