<svg width="48" height="48" viewBox="0 0 48 48" fill="none" xmlns="http://www.w3.org/2000/svg">
<rect width="48" height="48" rx="24" fill="#FBF5E5"/>
<g clip-path="url(#clip0_37_1370)">
<path d="M15.25 24C15.25 28.3313 18.4 31.9188 22.5563 32.6625L22.6079 32.6203C22.6052 32.6198 22.6026 32.6193 22.6 32.6188V26.4501H20.4125V24.0001H22.6V22.0751C22.6 19.8876 24 18.6626 26.0125 18.6626C26.625 18.6626 27.325 18.7501 27.9375 18.8376V21.0688H26.8C25.75 21.0688 25.4875 21.5938 25.4875 22.2938V24.0001H27.8062L27.4125 26.4501H25.4875V32.6188C25.4609 32.6237 25.4343 32.6284 25.4076 32.633L25.4437 32.6625C29.6 31.9188 32.75 28.3313 32.75 24C32.75 19.1875 28.8125 15.25 24 15.25C19.1875 15.25 15.25 19.1875 15.25 24Z" fill="#002E63" fill-opacity="0.4"/>
</g>
<rect x="0.5" y="0.5" width="47" height="47" rx="23.5" stroke="#002E63" stroke-opacity="0.1"/>
<defs>
<clipPath id="clip0_37_1370">
<rect width="17.5" height="17.5" fill="white" transform="translate(15.25 15.25)"/>
</clipPath>
</defs>
</svg>
