<svg width="48" height="48" viewBox="0 0 48 48" fill="none" xmlns="http://www.w3.org/2000/svg">
<rect width="48" height="48" rx="24" fill="#FBF5E5"/>
<g clip-path="url(#clip0_37_1363)">
<path d="M23.9966 21.0811C22.3902 21.0811 21.0777 22.3936 21.0777 24.0001C21.0777 25.6065 22.3902 26.919 23.9966 26.919C25.6031 26.919 26.9156 25.6065 26.9156 24.0001C26.9156 22.3936 25.6031 21.0811 23.9966 21.0811ZM32.7501 24.0001C32.7501 22.7901 32.7603 21.5938 32.692 20.3873C32.6236 18.9859 32.3057 17.7452 31.2803 16.7198C30.2549 15.6944 29.0142 15.3765 27.6129 15.3082C26.4029 15.2398 25.2066 15.2501 24.0001 15.2501C22.7901 15.2501 21.5938 15.2398 20.3873 15.3082C18.9859 15.3765 17.7452 15.6944 16.7198 16.7198C15.6944 17.7452 15.3765 18.9859 15.3082 20.3873C15.2398 21.5972 15.2501 22.7935 15.2501 24.0001C15.2501 25.2066 15.2398 26.4063 15.3082 27.6129C15.3765 29.0142 15.6944 30.2549 16.7198 31.2803C17.7452 32.3057 18.9859 32.6236 20.3873 32.692C21.5972 32.7603 22.7935 32.7501 24.0001 32.7501C25.21 32.7501 26.4063 32.7603 27.6129 32.692C29.0142 32.6236 30.2584 32.3057 31.2803 31.2803C32.3057 30.2549 32.6236 29.0142 32.692 27.6129C32.7637 26.4063 32.7501 25.21 32.7501 24.0001ZM23.9966 28.4913C21.5118 28.4913 19.5054 26.4849 19.5054 24.0001C19.5054 21.5152 21.5118 19.5088 23.9966 19.5088C26.4815 19.5088 28.4879 21.5152 28.4879 24.0001C28.4879 26.4849 26.4815 28.4913 23.9966 28.4913ZM28.6724 20.3736C28.0914 20.3736 27.6231 19.9053 27.6231 19.3243C27.6231 18.7432 28.0914 18.275 28.6724 18.275C29.2535 18.275 29.7217 18.7432 29.7217 19.3243C29.7217 19.9053 29.2535 20.3736 28.6724 20.3736Z" fill="#002E63" fill-opacity="0.4"/>
</g>
<rect x="0.5" y="0.5" width="47" height="47" rx="23.5" stroke="#002E63" stroke-opacity="0.1"/>
<defs>
<clipPath id="clip0_37_1363">
<rect width="17.5" height="17.5" fill="white" transform="translate(15.25 15.25)"/>
</clipPath>
</defs>
</svg>
