<svg width="120" height="32" viewBox="0 0 120 32" fill="none" xmlns="http://www.w3.org/2000/svg">
<g clip-path="url(#clip0_10_105)">
<mask id="mask0_10_105" style="mask-type:luminance" maskUnits="userSpaceOnUse" x="0" y="0" width="120" height="32">
<path d="M119.705 0H0V32H119.705V0Z" fill="white"/>
</mask>
<g mask="url(#mask0_10_105)">
<path d="M45.5784 2.76631C45.5764 2.39587 45.6461 2.02854 45.7837 1.68458C45.9121 1.35712 46.1046 1.05863 46.35 0.806675C46.5996 0.549402 46.8986 0.345309 47.2292 0.206692C47.5597 0.0680747 47.9149 -0.00219801 48.2733 0.000108161C48.6376 -0.00324073 48.9985 0.0712127 49.3317 0.218493C49.6482 0.359398 49.9351 0.559258 50.1769 0.807403C50.4174 1.06013 50.6045 1.3587 50.7272 1.68531C50.8586 2.03037 50.9238 2.3971 50.9194 2.76631V11.8133C51.2127 11.3218 51.5862 10.8828 52.0244 10.5146C52.5041 10.1055 53.0298 9.75371 53.5909 9.46635C54.1728 9.16957 54.7849 8.93626 55.4166 8.77043C56.0458 8.60435 56.6936 8.51946 57.3442 8.51783C58.9076 8.51028 60.4556 8.82525 61.8917 9.44305C63.2868 10.0375 64.5541 10.8957 65.6239 11.9705C66.6897 13.0474 67.542 14.3162 68.1361 15.71C68.7476 17.1548 69.0627 18.7078 69.0627 20.2767C69.0627 21.8457 68.7476 23.3987 68.1361 24.8435C66.938 27.6481 64.7014 29.8805 61.8946 31.0733C60.4544 31.6848 58.9057 32 57.341 32C55.7762 32 54.2276 31.6848 52.7873 31.0733C51.3958 30.4727 50.1275 29.6197 49.0464 28.5575C47.9687 27.495 47.1063 26.2344 46.5065 24.845C45.8856 23.4055 45.5701 21.8528 45.5799 20.2851L45.5784 2.76631ZM50.9441 20.2953C50.9373 21.1486 51.1091 21.994 51.4486 22.7769C51.7744 23.5319 52.24 24.2185 52.8208 24.8006C54.0231 25.9961 55.6498 26.6672 57.3453 26.6672C59.0409 26.6672 60.6676 25.9961 61.8699 24.8006C62.447 24.2186 62.9075 23.5317 63.2268 22.7769C63.8829 21.1868 63.8829 19.4016 63.2268 17.8115C62.9072 17.0562 62.4467 16.3687 61.8699 15.7857C61.2749 15.194 60.569 14.7255 59.7927 14.4071C59.0163 14.0887 58.1848 13.9266 57.3457 13.9301C56.5065 13.9265 55.6748 14.0885 54.8983 14.4069C54.1218 14.7253 53.4158 15.1939 52.8208 15.7857C52.2402 16.3688 51.7747 17.0561 51.4486 17.8115C51.109 18.5952 50.9371 19.4413 50.9441 20.2953Z" fill="white"/>
<path d="M80.3473 31.7328C79.2579 31.743 78.176 31.551 77.1567 31.1665C76.1996 30.8101 75.3251 30.2627 74.5863 29.5577C73.8452 28.8477 73.2546 27.9958 72.8494 27.0529C72.4272 26.0823 72.2151 25.0044 72.2132 23.8193V2.88861C72.2099 2.1761 72.4759 1.48865 72.9579 0.963913C73.1858 0.721102 73.4617 0.528253 73.7681 0.39757C74.0899 0.259262 74.4369 0.189356 74.7872 0.192288C75.15 0.191549 75.5094 0.261267 75.8456 0.39757C76.1726 0.528148 76.4714 0.720425 76.7257 0.963913C76.9758 1.20941 77.1793 1.49822 77.3263 1.81634C77.4798 2.15279 77.5579 2.51878 77.5548 2.88861V23.9394C77.5862 24.7584 77.8344 25.3822 78.2995 25.8161C78.7647 26.2499 79.4046 26.4756 80.2264 26.4909H80.3465C80.6986 26.4838 81.0485 26.5481 81.3751 26.6799C81.7016 26.8118 81.9981 27.0085 82.2465 27.2581C82.485 27.4985 82.6722 27.7848 82.7968 28.0996C82.9285 28.4287 82.9943 28.7804 82.9904 29.1348C82.9904 29.9064 82.7424 30.532 82.2465 31.0114C81.7515 31.4926 81.1152 31.7328 80.3473 31.7328Z" fill="white"/>
<path d="M86.7445 3.2009C86.7427 2.81195 86.8205 2.42674 86.973 2.06894C87.2662 1.37088 87.8197 0.814465 88.5163 0.517682C88.8804 0.363543 89.2725 0.286461 89.6679 0.29129C90.0542 0.287968 90.437 0.365066 90.7918 0.517682C91.1368 0.664711 91.4501 0.876762 91.7149 1.14226C91.9807 1.41046 92.196 1.72437 92.3504 2.06894C92.511 2.4246 92.5932 2.81066 92.5913 3.2009C92.5947 3.5981 92.5126 3.99137 92.3504 4.35397C92.1974 4.69935 91.982 5.01351 91.7149 5.28065C91.4504 5.54685 91.137 5.75943 90.7918 5.90668C90.4373 6.06059 90.0544 6.13869 89.6679 6.13599C89.2723 6.14021 88.8801 6.06213 88.5163 5.90668C88.1719 5.75847 87.8589 5.54601 87.594 5.28065C87.3221 5.00721 87.1071 4.68265 86.9613 4.3257C86.8155 3.96875 86.7418 3.58647 86.7445 3.2009ZM86.9628 11.1872C86.9623 10.8364 87.0349 10.4893 87.1761 10.1681C87.3145 9.84696 87.5149 9.55629 87.7658 9.31275C88.0184 9.06758 88.3147 8.8718 88.6393 8.73549C88.9723 8.59152 89.3313 8.5172 89.6941 8.51711C90.0493 8.51566 90.4008 8.59012 90.7249 8.73549C91.0346 8.87345 91.315 9.06939 91.5511 9.31275C91.7861 9.56118 91.9727 9.85125 92.1014 10.1681C92.2352 10.4912 92.3037 10.8375 92.3031 11.1872V29.3015C92.3066 29.658 92.238 30.0116 92.1014 30.341C91.9675 30.6539 91.7767 30.9392 91.5387 31.1825C91.2982 31.4222 91.0137 31.6133 90.7009 31.7452C90.375 31.8838 90.0241 31.9537 89.6701 31.9505C89.312 31.9537 88.9571 31.8839 88.6269 31.7452C88.3067 31.6145 88.0146 31.4235 87.7665 31.1825C87.5192 30.9415 87.3192 30.6563 87.1769 30.3417C87.0327 30.0143 86.96 29.6599 86.9636 29.3022L86.9628 11.1872Z" fill="white"/>
<path d="M108.107 23.9867L101.179 30.9641C100.925 31.2237 100.618 31.4249 100.279 31.5538C99.9496 31.6727 99.6017 31.7331 99.2513 31.7321C98.8935 31.7351 98.5387 31.665 98.2089 31.5261C97.5637 31.265 97.0428 30.767 96.753 30.1343C96.6085 29.8207 96.534 29.4793 96.5346 29.1341C96.5355 28.7964 96.6012 28.462 96.7283 28.1491C96.8669 27.8146 97.0713 27.5113 97.3295 27.2574L104.33 20.1905L97.232 12.9962C96.9827 12.7515 96.7895 12.4557 96.6657 12.1292C96.5472 11.8138 96.4868 11.4797 96.4873 11.1428C96.4869 10.7914 96.5614 10.444 96.7057 10.1237C96.9827 9.48522 97.4893 8.97398 98.1252 8.69108C98.451 8.5465 98.8039 8.47328 99.1603 8.47633C99.8657 8.47633 100.49 8.73403 101.036 9.24359L108.108 16.3913L115.11 9.29382C115.366 9.03243 115.674 8.82716 116.013 8.69108C116.347 8.56205 116.702 8.4971 117.061 8.49963C117.416 8.49721 117.768 8.57171 118.091 8.71801C118.41 8.86042 118.697 9.06454 118.937 9.31857C119.176 9.57527 119.368 9.87285 119.503 10.1972C119.637 10.5217 119.705 10.8696 119.704 11.2207C119.702 11.5455 119.642 11.8672 119.526 12.1707C119.406 12.4827 119.221 12.7657 118.983 13.0005L111.86 20.1905L118.788 27.165C119.287 27.6711 119.564 28.3544 119.56 29.0649C119.562 29.4216 119.487 29.7745 119.341 30.1C119.204 30.415 119.008 30.7007 118.763 30.9415C118.522 31.1856 118.236 31.3818 117.922 31.5195C117.605 31.6658 117.259 31.7404 116.91 31.7379C116.569 31.7224 116.233 31.6529 115.913 31.5319C115.582 31.4127 115.281 31.2207 115.034 30.9699L108.107 23.9867Z" fill="white"/>
<path fill-rule="evenodd" clip-rule="evenodd" d="M30.5367 32C24.0623 32 18.6944 26.7355 18.5743 20.2604C18.5002 18.5562 17.771 16.9464 16.5387 15.7669C15.3065 14.5873 13.6664 13.9291 11.9606 13.9294C10.2548 13.9298 8.61503 14.5888 7.38331 15.7689C6.15159 16.949 5.42306 18.5591 5.34969 20.2633L5.34169 20.5232H0L0.00436779 20.248C0.122295 13.7744 5.48655 8.50983 11.9631 8.50983C18.4397 8.50983 23.809 13.7751 23.9277 20.2487C23.9851 21.9649 24.7073 23.5916 25.9418 24.7851C27.1763 25.9787 28.8264 26.6457 30.5436 26.6452C32.2607 26.6448 33.9104 25.9769 35.1443 24.7826C36.3781 23.5884 37.0995 21.9613 37.1559 20.2451L37.1632 19.9852H42.5042L42.4984 20.2604C42.3819 26.7355 37.0154 32 30.5367 32Z" fill="white"/>
<path fill-rule="evenodd" clip-rule="evenodd" d="M11.9631 32C5.48436 32 0.122295 26.7355 0.00436779 20.2604L0 19.9852H5.33877L5.34678 20.2451C5.40087 21.9635 6.12153 23.5935 7.35622 24.7899C8.59091 25.9864 10.2427 26.6554 11.962 26.6554C13.6813 26.6554 15.3331 25.9864 16.5678 24.7899C17.8025 23.5935 18.5232 21.9635 18.5772 20.2451C18.6974 13.7751 24.0652 8.51056 30.5396 8.51056C37.014 8.51056 42.3819 13.7751 42.4984 20.2487L42.5042 20.5239H37.161L37.1538 20.2604C37.0968 18.5442 36.375 16.9173 35.1408 15.7234C33.9067 14.5295 32.2568 13.8621 30.5396 13.8621C28.8225 13.8621 27.1726 14.5295 25.9384 15.7234C24.7042 16.9173 23.9824 18.5442 23.9255 20.2604C23.809 26.7355 18.4433 32 11.9631 32Z" fill="white"/>
</g>
</g>
<defs>
<clipPath id="clip0_10_105">
<rect width="120" height="32" fill="white"/>
</clipPath>
</defs>
</svg>
