<svg width="48" height="48" viewBox="0 0 48 48" fill="none" xmlns="http://www.w3.org/2000/svg">
<rect width="48" height="48" rx="24" fill="#FBF5E5"/>
<path d="M34 24.1581C34 22.9455 33.0159 21.9613 31.8031 21.9613C31.2057 21.9613 30.6784 22.1898 30.2917 22.5764C28.7979 21.5043 26.724 20.8013 24.4394 20.7135L25.4411 16.021L28.6925 16.7065C28.7276 17.5324 29.413 18.2003 30.2566 18.2003C31.1178 18.2003 31.8208 17.4973 31.8208 16.6361C31.8208 15.775 31.1178 15.072 30.2566 15.072C29.6414 15.072 29.1142 15.4235 28.8682 15.9508L25.2303 15.1774C25.1248 15.1598 25.0194 15.1774 24.9315 15.2301C24.8436 15.2828 24.7909 15.3707 24.7557 15.4762L23.6485 20.7135C21.3111 20.7838 19.2197 21.4692 17.7083 22.5764C17.3216 22.2073 16.7768 21.9613 16.1968 21.9613C14.9842 21.9613 14 22.9455 14 24.1581C14 25.0544 14.5272 25.8101 15.3005 26.1616C15.2654 26.3725 15.2478 26.601 15.2478 26.8294C15.2478 30.2037 19.1669 32.9278 24.0176 32.9278C28.8682 32.9278 32.7874 30.2037 32.7874 26.8294C32.7874 26.601 32.7699 26.39 32.7347 26.1791C33.4552 25.8277 34 25.0544 34 24.1581ZM18.9736 25.7222C18.9736 24.8611 19.6766 24.1581 20.5378 24.1581C21.3989 24.1581 22.1019 24.8611 22.1019 25.7222C22.1019 26.5834 21.3989 27.2864 20.5378 27.2864C19.6766 27.2864 18.9736 26.5834 18.9736 25.7222ZM27.7083 29.8523C26.6363 30.9244 24.5975 30.9947 24 30.9947C23.4025 30.9947 21.3462 30.9068 20.2917 29.8523C20.1336 29.6941 20.1336 29.4305 20.2917 29.2724C20.45 29.1142 20.7135 29.1142 20.8717 29.2724C21.5395 29.9402 22.9807 30.1863 24.0176 30.1863C25.0545 30.1863 26.4781 29.9402 27.1634 29.2724C27.3216 29.1142 27.5853 29.1142 27.7435 29.2724C27.8664 29.4481 27.8664 29.6941 27.7083 29.8523ZM27.427 27.2864C26.5659 27.2864 25.8629 26.5834 25.8629 25.7222C25.8629 24.8611 26.5659 24.1581 27.427 24.1581C28.2883 24.1581 28.9913 24.8611 28.9913 25.7222C28.9913 26.5834 28.2883 27.2864 27.427 27.2864Z" fill="#002E63" fill-opacity="0.4"/>
<rect x="0.5" y="0.5" width="47" height="47" rx="23.5" stroke="#002E63" stroke-opacity="0.1"/>
</svg>
