<svg width="48" height="48" viewBox="0 0 48 48" fill="none" xmlns="http://www.w3.org/2000/svg">
<rect width="48" height="48" rx="24" fill="#FBF5E5"/>
<path d="M34 17.5946C33.2645 17.9205 32.4744 18.1407 31.6438 18.2402C32.5008 17.7274 33.142 16.9203 33.4477 15.9695C32.6425 16.4478 31.7612 16.7844 30.8422 16.9648C30.2242 16.305 29.4057 15.8676 28.5137 15.7206C27.6216 15.5737 26.706 15.7253 25.9089 16.152C25.1119 16.5788 24.4781 17.2567 24.1058 18.0805C23.7336 18.9044 23.6438 19.8281 23.8503 20.7083C22.2187 20.6264 20.6226 20.2023 19.1655 19.4636C17.7085 18.7249 16.423 17.6881 15.3926 16.4205C15.0402 17.0282 14.8377 17.7329 14.8377 18.4833C14.8373 19.1589 15.0036 19.8242 15.322 20.42C15.6404 21.0159 16.1009 21.524 16.6627 21.8992C16.0112 21.8785 15.374 21.7024 14.8042 21.3857V21.4385C14.8041 22.3861 15.1319 23.3044 15.7319 24.0378C16.3318 24.7712 17.1671 25.2744 18.0958 25.4621C17.4914 25.6257 16.8577 25.6498 16.2426 25.5326C16.5046 26.3478 17.0151 27.0609 17.7024 27.5716C18.3898 28.0824 19.2197 28.3655 20.0759 28.3812C18.6224 29.5222 16.8273 30.1411 14.9795 30.1384C14.6521 30.1385 14.3251 30.1194 14 30.0812C15.8757 31.2872 18.0591 31.9272 20.2891 31.9248C27.8377 31.9248 31.9644 25.6726 31.9644 20.2503C31.9644 20.0741 31.96 19.8962 31.9521 19.72C32.7547 19.1395 33.4477 18.4207 33.9982 17.5972L34 17.5946Z" fill="#002E63" fill-opacity="0.4"/>
<rect x="0.5" y="0.5" width="47" height="47" rx="23.5" stroke="#002E63" stroke-opacity="0.1"/>
</svg>
