<svg width="48" height="48" viewBox="0 0 48 48" fill="none" xmlns="http://www.w3.org/2000/svg">
<rect width="48" height="48" rx="24" fill="#FBF5E5"/>
<path d="M33.8 19.9667C33.8 19.9667 33.6 18.5668 33 17.9668C32.2667 17.1668 31.4001 17.1668 31.0001 17.1001C28.2001 16.9001 24.0002 16.9001 24.0002 16.9001C24.0002 16.9001 19.8003 16.9001 17.0004 17.1001C16.6004 17.1668 15.7338 17.1668 15.0005 17.9668C14.4005 18.5668 14.2005 19.9667 14.2005 19.9667C14.2005 19.9667 14.0005 21.5667 14.0005 23.2333V24.7666C14.0005 26.3666 14.2005 28.0332 14.2005 28.0332C14.2005 28.0332 14.4005 29.4332 15.0005 30.0332C15.7338 30.8331 16.7338 30.8331 17.2004 30.8998C18.8004 31.0331 24.0002 31.0998 24.0002 31.0998C24.0002 31.0998 28.2001 31.0998 31.0001 30.8998C31.4001 30.8331 32.2667 30.8331 33 30.0332C33.6 29.4332 33.8 28.0332 33.8 28.0332C33.8 28.0332 34 26.4332 34 24.7666V23.2333C34 21.5667 33.8 19.9667 33.8 19.9667ZM21.9336 26.5666V20.9667L27.3335 23.7666L21.9336 26.5666Z" fill="#002E63" fill-opacity="0.4"/>
<rect x="0.5" y="0.5" width="47" height="47" rx="23.5" stroke="#002E63" stroke-opacity="0.1"/>
</svg>
