<svg width="269" height="106" viewBox="0 0 269 106" fill="none" xmlns="http://www.w3.org/2000/svg">
<path d="M68.4448 48.245C66.7049 45.8397 62.6541 41.3806 57.6246 36.1647C65.264 28.5435 71.8431 21.9223 71.979 21.8142C73.7733 20.0305 73.7462 17.1388 71.9519 15.3552C70.1576 13.5715 67.2486 13.5985 65.4815 15.3822C65.3456 15.5173 58.8208 22.0574 51.263 29.5975C48.9522 27.2463 46.5598 24.8411 44.1674 22.4899C49.9309 16.8145 55.205 11.6797 58.6305 8.40966C60.452 6.65301 60.5064 3.7613 58.7393 1.9506C56.9722 0.139908 54.0632 0.0858569 52.2689 1.8425C51.6436 2.43706 45.3908 8.46371 37.697 16.0578C29.9489 8.46371 23.696 2.46409 23.0707 1.8425C21.2493 0.112882 18.3403 0.139908 16.6004 1.9506C14.8333 3.7613 14.8876 6.65301 16.7091 8.40966C20.1346 11.7067 25.4088 16.8416 31.1723 22.4899C28.8071 24.8411 26.4147 27.2463 24.0766 29.5975C16.5188 22.0304 9.9941 15.4903 9.85816 15.3822C8.06386 13.5985 5.18211 13.5715 3.36062 15.3552C1.56632 17.1118 1.53913 20.0035 3.33343 21.8142C3.46937 21.9493 10.0485 28.5435 17.6878 36.1647C12.6584 41.3806 8.60759 45.8397 6.86766 48.245C0.261373 57.4336 0.315745 66.7033 0.342932 68.1356C0.397304 88.5398 17.0897 105.106 37.5883 105.16C37.5883 105.16 37.5883 105.16 37.6155 105.16H37.6426H37.6698C37.6698 105.16 37.6698 105.16 37.697 105.16C58.2227 105.106 74.888 88.5398 74.9424 68.1356C74.9967 66.7303 75.0511 57.4336 68.4448 48.245ZM37.6426 28.9219C40.035 31.3271 42.4546 33.7324 44.7383 36.0566C42.2643 38.5159 39.8447 40.9211 37.6426 43.1102C35.4405 40.9211 33.021 38.5159 30.547 36.0566C32.8578 33.7324 35.2502 31.3271 37.6426 28.9219ZM38.6214 56.8661C45.2005 63.217 45.5811 68.0275 45.5811 68.0275C45.5811 72.3786 42.0468 75.9189 37.6698 75.9189C33.2928 75.8919 29.7586 72.3516 29.7586 68.1356C29.7586 68.0816 30.112 63.244 36.7183 56.839C37.0174 56.5688 37.3436 56.2445 37.6698 55.9202C37.9961 56.2715 38.3223 56.5958 38.6214 56.8661ZM65.7805 67.7843C65.7805 67.8654 65.7805 67.9465 65.7805 68.0546C65.7805 83.486 53.1661 96.0258 37.6426 96.0528C22.1192 96.0258 9.50474 83.486 9.50474 68.0546C9.50474 68.0005 9.50474 67.8924 9.50474 67.8384C9.50474 67.7573 9.26006 60.6226 14.3167 53.569C15.7848 51.5151 19.455 47.5153 24.1582 42.6237C26.5778 45.029 28.943 47.3802 31.1179 49.5422C30.8189 49.8395 30.547 50.0827 30.3023 50.353C20.8143 59.5145 20.5696 67.2438 20.5696 68.0546C20.5696 77.4053 28.1818 84.9994 37.5611 85.0535C37.5883 85.0535 37.6155 85.0535 37.6155 85.0535H37.6426H37.6698C37.697 85.0535 37.7242 85.0535 37.7242 85.0535C47.1035 84.9724 54.7157 77.3783 54.7157 68.0546C54.7157 67.2168 54.471 59.4875 44.983 50.3259C44.7383 50.0827 44.4392 49.8125 44.1674 49.5152C46.3423 47.3802 48.7075 45.0019 51.1271 42.5967C55.8303 47.4883 59.5005 51.488 60.9686 53.542C66.0524 60.5956 65.7805 67.7573 65.7805 67.7843Z" fill="#B9E5FB"/>
<path opacity="0.8" d="M37.5853 55.9463C39.298 54.2708 41.5545 52.0547 44.11 49.5413C42.3973 47.8928 40.1408 45.6497 37.5853 43.1363C35.0298 45.6497 32.7733 47.8928 31.0605 49.5413C33.6161 52.0547 35.8725 54.2708 37.5853 55.9463Z" fill="#00ACE4"/>
<path opacity="0.8" d="M42.2072 80.5124C42.2072 77.999 40.1411 75.9451 37.6127 75.9451H37.5856H37.5584C35.03 75.9451 32.9639 77.999 32.9639 80.5124C32.9639 82.9987 34.9757 85.0256 37.4768 85.0526C37.504 85.0526 37.5312 85.0526 37.5856 85.0526C37.6127 85.0526 37.6671 85.0526 37.6943 85.0526C40.1955 85.0256 42.2072 82.9987 42.2072 80.5124Z" fill="#00ACE4"/>
<path opacity="0.9" d="M44.9532 50.3251C44.7085 50.0818 44.4095 49.8116 44.1376 49.5143C41.5821 52.0277 39.3256 54.2437 37.6129 55.9193C37.9663 56.2436 38.2926 56.5679 38.5644 56.8382C45.1435 63.1891 45.5241 67.9996 45.5241 67.9996C45.5241 72.3507 41.9899 75.891 37.6129 75.891H37.5857C35.0574 75.891 32.9912 77.945 32.9912 80.4583C32.9912 82.9446 35.003 84.9715 37.5041 84.9986C37.5313 84.9986 37.5585 84.9986 37.6129 84.9986C37.6401 84.9986 37.6945 84.9986 37.7216 84.9986C47.1009 84.9175 54.7131 77.3234 54.7131 67.9996C54.6859 67.2159 54.4413 59.4867 44.9532 50.3251Z" fill="#00ACE4"/>
<path opacity="0.8" d="M30.4899 36.0557C28.2334 38.3528 26.0857 40.5419 24.1011 42.5958C26.5207 45.0011 28.8859 47.3523 31.0608 49.5143C32.7735 47.8658 35.03 45.6227 37.5855 43.1093C35.3834 40.9473 32.9638 38.542 30.4899 36.0557Z" fill="#00ACE4"/>
<path opacity="0.8" d="M3.30349 15.3543C1.50919 17.138 1.50919 20.0026 3.2763 21.8133C3.41223 21.9485 9.99134 28.5427 17.6307 36.1638C19.6425 34.0829 21.7902 31.8668 24.0195 29.6237C16.4345 22.0566 9.93697 15.5164 9.80103 15.3813C8.00673 13.5976 5.09779 13.5706 3.30349 15.3543Z" fill="#00ACE4"/>
<path opacity="0.8" d="M30.4898 36.0557C28.3149 33.8937 26.14 31.7046 24.0194 29.5966C21.7901 31.8397 19.6424 34.0558 17.6306 36.1368C19.7512 38.2447 21.9533 40.4338 24.101 42.5958C26.0856 40.5689 28.2333 38.3528 30.4898 36.0557Z" fill="#00ACE4"/>
<g opacity="0.95">
<path opacity="0.95" d="M23.0136 1.84163C21.1921 0.0849872 18.2832 0.139038 16.5433 1.94973C14.7762 3.76043 14.8305 6.65214 16.652 8.40879C20.0775 11.7059 25.3517 16.8407 31.1152 22.489C33.3445 20.2729 35.5194 18.1109 37.6127 16.057C29.8918 8.46284 23.6389 2.46322 23.0136 1.84163Z" fill="#00ACE4"/>
<path opacity="0.95" d="M51.1786 29.6237C48.8678 27.2725 46.4754 24.8672 44.083 22.516C41.9625 24.624 39.7604 26.786 37.5854 28.948C39.9778 31.3533 42.3974 33.7585 44.6811 36.0827C46.856 33.9207 49.0581 31.7316 51.1786 29.6237Z" fill="#00ACE4"/>
</g>
<path opacity="0.8" d="M51.097 42.6228C53.272 40.4608 55.4469 38.2718 57.5674 36.1638C55.5556 34.0828 53.4079 31.8668 51.1786 29.6237C49.0581 31.7316 46.856 33.9207 44.7083 36.0827C46.9647 38.3528 49.1124 40.5689 51.097 42.6228Z" fill="#00ACE4"/>
<path opacity="0.8" d="M71.8948 15.3543C70.1005 13.5706 67.1915 13.5976 65.4244 15.3813C65.2885 15.5164 58.7637 22.0566 51.2059 29.5966C49.0854 31.7046 46.8833 33.8937 44.7356 36.0557C42.2616 38.515 39.842 40.9203 37.6399 43.1093C35.0844 45.6227 32.8279 47.8658 31.1152 49.5143C30.8162 49.8116 30.5443 50.0548 30.2996 50.3251C20.8116 59.4867 20.5669 67.2159 20.5669 68.0267C20.5669 77.3774 28.1791 84.9715 37.5584 85.0256C35.0572 84.9986 33.0454 82.9717 33.0454 80.4853C33.0454 77.972 35.1116 75.9181 37.6399 75.9181H37.6671C33.2901 75.891 29.7559 72.3507 29.7559 68.1348C29.7559 68.0807 30.1093 63.2432 36.7156 56.8382C37.0146 56.5679 37.3409 56.2436 37.6671 55.9193C39.3799 54.2437 41.6363 52.0277 44.1918 49.5143C46.3668 47.3793 48.732 45.0011 51.1516 42.5958C53.3265 40.4338 55.5014 38.2447 57.6219 36.1368C65.2613 28.5156 71.8404 21.8944 71.9763 21.7863C73.6891 20.0026 73.6891 17.138 71.8948 15.3543Z" fill="#00ACE4"/>
<path opacity="0.8" d="M37.6125 28.921C39.7874 26.732 41.9895 24.5699 44.1101 22.489C41.8808 20.2729 39.7059 18.1109 37.6125 16.057C35.5192 18.1109 33.3443 20.2729 31.115 22.489C33.2355 24.597 35.4104 26.759 37.6125 28.921Z" fill="#00ACE4"/>
<path opacity="0.8" d="M58.6538 1.94549C56.8866 0.13479 53.9777 0.0807396 52.1834 1.83739C51.5581 2.43194 45.3052 8.45859 37.6115 16.0527C35.5181 18.1066 33.3432 20.2687 31.1139 22.4847C28.7487 24.8359 26.3563 27.2412 24.0183 29.5924C21.789 31.8355 19.6413 34.0516 17.6295 36.1325C12.6272 41.3754 8.54924 45.8346 6.80931 48.2399C0.203023 57.4285 0.257396 66.6982 0.284582 68.1305C0.338955 88.5346 17.0314 105.101 37.5299 105.155C37.5571 105.155 37.5571 105.155 37.5843 105.155C37.6115 105.155 37.6115 105.155 37.6387 105.155C40.167 105.155 42.206 103.101 42.206 100.588C42.206 98.0746 40.1398 96.0206 37.6115 96.0206H37.5843C22.0609 95.9936 9.44639 83.4539 9.44639 68.0224C9.44639 67.9684 9.44639 67.8603 9.44639 67.8062C9.44639 67.7251 9.20172 60.5904 14.2584 53.5368C15.7264 51.4829 19.3966 47.4832 24.0999 42.5916C26.0845 40.5376 28.2322 38.3216 30.4887 36.0514C32.7995 33.7273 35.1919 31.322 37.5843 28.9168C39.7592 26.7277 41.9613 24.5657 44.0818 22.4847C49.8454 16.8094 55.1195 11.6746 58.545 8.40454C60.3665 6.64789 60.4209 3.75618 58.6538 1.94549Z" fill="#00ACE4"/>
<path opacity="0.95" d="M68.3876 48.2441C66.6477 45.8389 62.5969 41.3797 57.5674 36.1638C55.4469 38.2718 53.2448 40.4608 51.0971 42.6229C55.8003 47.5145 59.4705 51.5142 60.9386 53.5681C65.9952 60.6217 65.7505 67.7564 65.7505 67.7835C65.7505 67.8645 65.7505 67.9456 65.7505 68.0537C65.7505 83.4852 53.1361 96.0249 37.6127 96.0519H37.5855C35.0571 96.0519 32.991 98.1059 32.991 100.619C32.991 103.133 35.0299 105.159 37.5583 105.187C37.5855 105.187 37.5855 105.187 37.6127 105.187C37.6398 105.187 37.6398 105.187 37.667 105.187C58.1927 105.132 74.858 88.5659 74.9124 68.1618C74.9395 66.7295 74.9939 57.4327 68.3876 48.2441Z" fill="#00ACE4"/>
<path d="M86.6296 65.5133V57.676H93.1272C93.1816 47.082 97.9392 41.7851 107.373 41.7851C108.596 41.7851 109.847 41.9202 111.125 42.1634V49.4603C110.2 49.3521 109.521 49.2981 109.058 49.2981C106.666 49.2981 104.953 49.8656 103.893 51.0007C102.833 52.1358 102.316 54.3518 102.316 57.6489H111.097V65.4863H102.316V95.6465H93.1V65.5133H86.6296Z" fill="#2C3C4E"/>
<path d="M120.042 95.6735V43.1904H129.231V95.6735H120.042Z" fill="#2C3C4E"/>
<path d="M138.991 95.6735V57.6489H148.207V95.6465H138.991V95.6735Z" fill="#2C3C4E"/>
<path d="M138.991 51.7304V43.0012H148.207V51.7034H138.991V51.7304Z" fill="#2C3C4E"/>
<path d="M158.565 95.6735V61.2163C164.165 58.4327 170.01 57.0544 176.1 57.0544C181.429 57.0544 185.615 58.4327 188.606 61.1892C191.624 63.9458 193.119 67.8375 193.119 72.8101V95.6465H183.903V72.0264C183.903 70.9994 183.821 70.1616 183.631 69.486C183.44 68.8104 183.06 68.0807 182.516 67.351C181.945 66.5943 181.048 66.0538 179.77 65.6754C178.493 65.2971 176.861 65.1079 174.877 65.1079C172.647 65.1079 170.255 65.3241 167.781 65.7835V95.6465H158.565V95.6735Z" fill="#2C3C4E"/>
<path d="M202.308 95.6735V43.4066H211.524V71.594L224.383 57.6489H236.59L219.952 74.5668L238.357 95.6465H226.721L214.079 80.6475L211.524 83.2149V95.6465H202.308V95.6735Z" fill="#2C3C4E"/>
<path d="M241.51 68.9455C241.51 65.1349 242.87 62.1892 245.561 60.1353C248.253 58.0813 251.651 57.0544 255.675 57.0544C259.481 57.0544 262.96 57.9462 266.114 59.7569V66.7294C263.531 65.5133 260.568 64.8917 257.279 64.8917C252.902 64.8917 250.699 65.9727 250.699 68.1077C250.699 69.1887 251.325 70.0265 252.575 70.6211C253.826 71.2427 255.348 71.7561 257.143 72.2156C258.937 72.675 260.731 73.2966 262.498 74.0803C264.265 74.8641 265.815 76.1883 267.066 78.053C268.316 79.9178 268.969 82.296 268.969 85.1877C268.969 88.3767 267.664 90.9982 265.054 93.1061C262.444 95.2141 258.991 96.2411 254.723 96.2411C250.319 96.2411 246.295 95.2141 242.598 93.1332V85.0256C245.969 87.2687 249.558 88.3767 253.418 88.3767C256.055 88.3767 257.768 88.0794 258.583 87.4579C259.372 86.8633 259.78 85.9444 259.78 84.7283C259.78 83.6203 259.154 82.7014 257.904 82.0258C256.653 81.3501 255.131 80.7556 253.337 80.2421C251.542 79.7286 249.775 79.1341 247.981 78.4314C246.187 77.7287 244.664 76.5937 243.414 74.9722C242.136 73.4047 241.51 71.3778 241.51 68.9455Z" fill="#2C3C4E"/>
</svg>
