<svg width="30" height="30" viewBox="0 0 30 30" fill="none" xmlns="http://www.w3.org/2000/svg">
<path d="M13.0374 3.025C14.2499 2.325 15.7499 2.325 16.9749 3.025L24.3999 7.31249C25.6124 8.01249 26.3624 9.31254 26.3624 10.725V19.275C26.3624 20.675 25.6124 21.9751 24.3999 22.6876L16.9749 26.975C15.7624 27.675 14.2624 27.675 13.0374 26.975L5.6124 22.6876C4.3999 21.9876 3.6499 20.6875 3.6499 19.275V10.725C3.6499 9.32504 4.3999 8.02499 5.6124 7.31249L7.9874 5.93752" stroke="white" stroke-width="1.5" stroke-linecap="round" stroke-linejoin="round"/>
<path d="M14.9999 13.75C16.6084 13.75 17.9124 12.446 17.9124 10.8375C17.9124 9.22896 16.6084 7.92505 14.9999 7.92505C13.3914 7.92505 12.0874 9.22896 12.0874 10.8375C12.0874 12.446 13.3914 13.75 14.9999 13.75Z" stroke="white" stroke-width="1.5" stroke-linecap="round" stroke-linejoin="round"/>
<path d="M20 20.8249C20 18.5749 17.7625 16.75 15 16.75C12.2375 16.75 10 18.5749 10 20.8249" stroke="white" stroke-width="1.5" stroke-linecap="round" stroke-linejoin="round"/>
</svg>
