<svg width="31" height="31" viewBox="0 0 31 31" fill="none" xmlns="http://www.w3.org/2000/svg">
<path d="M11.7378 28.3604H27.0263" stroke="white" stroke-width="1.14664" stroke-linecap="round" stroke-linejoin="round"/>
<path d="M2.81982 28.3604H7.91598" stroke="white" stroke-width="1.14664" stroke-linecap="round" stroke-linejoin="round"/>
<path d="M4.09326 16.8939V23.2641C4.09326 23.9648 4.66658 24.5381 5.3673 24.5381H7.40573C8.10646 24.5381 8.67977 23.9648 8.67977 23.2641V12.2819C8.67977 11.5811 8.10646 11.0078 7.40573 11.0078H5.3673C4.66658 11.0078 4.09326 11.5811 4.09326 12.2819" stroke="white" stroke-width="1.14664" stroke-linecap="round" stroke-linejoin="round"/>
<path d="M16.5786 6.9436H14.5402C13.8394 6.9436 13.2661 7.51692 13.2661 8.21764V23.264C13.2661 23.9648 13.8394 24.5381 14.5402 24.5381H16.5786C17.2793 24.5381 17.8526 23.9648 17.8526 23.264V8.21764C17.8526 7.51692 17.2793 6.9436 16.5786 6.9436Z" stroke="white" stroke-width="1.14664" stroke-linecap="round" stroke-linejoin="round"/>
<path d="M27.026 4.15343C27.026 3.45271 26.4526 2.87939 25.7519 2.87939H23.7135C23.0128 2.87939 22.4395 3.45271 22.4395 4.15343V23.264C22.4395 23.9647 23.0128 24.5381 23.7135 24.5381H25.7519C26.4526 24.5381 27.026 23.9647 27.026 23.264V9.41522" stroke="white" stroke-width="1.14664" stroke-linecap="round" stroke-linejoin="round"/>
</svg>
