<svg width="30" height="30" viewBox="0 0 30 30" fill="none" xmlns="http://www.w3.org/2000/svg">
<path d="M21.25 28.4375H8.75C4.45 28.4375 1.5625 25.55 1.5625 21.25V15C1.5625 11.15 3.9375 8.36251 7.625 7.90001C7.975 7.85001 8.3625 7.8125 8.75 7.8125H21.25C21.55 7.8125 21.9375 7.825 22.3375 7.8875C26.025 8.3125 28.4375 11.1125 28.4375 15V21.25C28.4375 25.55 25.55 28.4375 21.25 28.4375ZM8.75 9.6875C8.45 9.6875 8.1625 9.71248 7.875 9.74998C5.125 10.1 3.4375 12.1 3.4375 15V21.25C3.4375 24.475 5.525 26.5625 8.75 26.5625H21.25C24.475 26.5625 26.5625 24.475 26.5625 21.25V15C26.5625 12.075 24.85 10.0625 22.075 9.73751C21.775 9.68751 21.5125 9.6875 21.25 9.6875H8.75Z" fill="#87ABBD"/>
<path d="M7.73756 9.76256C7.43756 9.76256 7.16256 9.62506 6.97506 9.37506C6.76256 9.08756 6.73756 8.71256 6.90006 8.40006C7.11256 7.97506 7.41256 7.56256 7.80006 7.18756L11.8626 3.11255C13.9376 1.05005 17.3126 1.05005 19.3876 3.11255L21.5751 5.32507C22.5001 6.23757 23.0626 7.46257 23.1251 8.76257C23.1376 9.05007 23.0251 9.32504 22.8126 9.51254C22.6001 9.70004 22.3126 9.78757 22.0376 9.73757C21.7876 9.70007 21.5251 9.68756 21.2501 9.68756H8.75006C8.45006 9.68756 8.16256 9.71255 7.87506 9.75005C7.83756 9.76255 7.78756 9.76256 7.73756 9.76256ZM9.82506 7.81256H21.0251C20.8626 7.38756 20.6001 7.00007 20.2501 6.65007L18.0501 4.42507C16.7126 3.10007 14.5251 3.10007 13.1751 4.42507L9.82506 7.81256Z" fill="#87ABBD"/>
<path d="M27.5 21.5625H23.75C21.85 21.5625 20.3125 20.025 20.3125 18.125C20.3125 16.225 21.85 14.6875 23.75 14.6875H27.5C28.0125 14.6875 28.4375 15.1125 28.4375 15.625C28.4375 16.1375 28.0125 16.5625 27.5 16.5625H23.75C22.8875 16.5625 22.1875 17.2625 22.1875 18.125C22.1875 18.9875 22.8875 19.6875 23.75 19.6875H27.5C28.0125 19.6875 28.4375 20.1125 28.4375 20.625C28.4375 21.1375 28.0125 21.5625 27.5 21.5625Z" fill="#87ABBD"/>
</svg>
