<svg width="24" height="24" viewBox="0 0 24 24" fill="none" xmlns="http://www.w3.org/2000/svg">
<path d="M6.54 5.32827C6.6 6.18911 6.75 7.0306 6.99 7.8334L5.79 8.99408C5.38 7.8334 5.12 6.60502 5.03 5.32827H6.54ZM16.4 16.9544C17.25 17.1866 18.12 17.3316 19 17.3897V18.8309C17.68 18.7438 16.41 18.4923 15.2 18.1054L16.4 16.9544ZM7.5 3.3938H4C3.45 3.3938 3 3.82905 3 4.36103C3 13.4434 10.61 20.804 20 20.804C20.55 20.804 21 20.3688 21 19.8368V16.4611C21 15.9292 20.55 15.4939 20 15.4939C18.76 15.4939 17.55 15.3005 16.43 14.9426C16.33 14.9039 16.22 14.8942 16.12 14.8942C15.86 14.8942 15.61 14.9909 15.41 15.1747L13.21 17.3026C10.38 15.9001 8.06 13.6658 6.62 10.9286L8.82 8.80064C9.1 8.52981 9.18 8.15259 9.07 7.81406C8.7 6.73076 8.5 5.57008 8.5 4.36103C8.5 3.82905 8.05 3.3938 7.5 3.3938Z" fill="white"/>
</svg>
