<svg width="32" height="31" viewBox="0 0 32 31" fill="none" xmlns="http://www.w3.org/2000/svg">
<path d="M26.0503 25.2069L26.0606 18.0079C26.0606 14.483 25.2782 11.7747 21.0162 11.7747C18.9676 11.7747 17.5985 12.86 17.0323 13.8955H16.9705V12.0933H12.9351V25.197H17.1352V18.7148C17.1352 17.0022 17.4749 15.3493 19.6574 15.3493C21.8089 15.3493 21.8501 17.3009 21.8501 18.8244V25.2069H26.0503Z" fill="#4F8FAC"/>
<path d="M10.3101 12.0933H6.09961V25.197H10.3101V12.0933Z" fill="#4F8FAC"/>
<path d="M8.19956 5.57129C6.85098 5.57129 5.75977 6.62675 5.75977 7.93115C5.75977 9.23554 6.85098 10.3109 8.19956 10.3109C9.54815 10.3109 10.6394 9.23554 10.6394 7.93115C10.6394 6.62675 9.54815 5.57129 8.19956 5.57129Z" fill="#4F8FAC"/>
</svg>
