<svg id="Layer_1" data-name="Layer 1" xmlns="http://www.w3.org/2000/svg" viewBox="0 0 50 50"><defs><style>.cls-1{fill:#070100;}.cls-2{fill:#508fac;}.cls-3{fill:#fffefe;}</style></defs><path class="cls-1" d="M25.34,11.18h-.19c-1.18,0-2.36,0-3.54,0s-2.09.05-3.14.08l-2.11.07-.71,0-1.73.11c-.44,0-.89.06-1.33.11-.62.06-1.23.13-1.85.21-.41.06-.82.12-1.22.21a4.81,4.81,0,0,0-2.39,1.42A4.72,4.72,0,0,0,6,15.66a25.88,25.88,0,0,0-.45,2.91c-.08.8-.15,1.61-.19,2.42-.06,1-.1,2-.12,3.07,0,1.31,0,2.63,0,4,0,.51,0,1,.08,1.52.07.82.15,1.64.24,2.45A18.15,18.15,0,0,0,6,34.41a4.92,4.92,0,0,0,4.07,3.73c.59.08,1.18.16,1.78.22s1.1.11,1.66.15l1.78.11,2.33.11q1,0,1.92.06c1.09,0,2.18.06,3.28.06,2.05,0,4.09,0,6.14,0,1.25,0,2.49-.06,3.74-.1.89,0,1.77-.07,2.66-.13s1.65-.12,2.48-.19,1.44-.16,2.15-.28a5,5,0,0,0,2.81-1.48A4.72,4.72,0,0,0,44,34.45,20.21,20.21,0,0,0,44.4,32c.09-.76.17-1.52.23-2.27s.11-1.54.15-2.32,0-1.57,0-2.36c0-1.46,0-2.92-.14-4.37-.06-.81-.15-1.61-.24-2.42A18.82,18.82,0,0,0,44,15.7a4.88,4.88,0,0,0-3-3.52,7.1,7.1,0,0,0-2-.45l-2-.19c-.68,0-1.36-.09-2-.12l-2.09-.1c-1.09,0-2.18-.07-3.28-.09C28.17,11.2,26.76,11.19,25.34,11.18Z"/><path class="cls-2" d="M25.34,11.18c1.42,0,2.83,0,4.24.05,1.1,0,2.19.06,3.28.09l2.09.1c.69,0,1.37.07,2,.12l2,.19a7.1,7.1,0,0,1,2,.45,4.88,4.88,0,0,1,3,3.52,18.82,18.82,0,0,1,.45,2.58c.09.81.18,1.61.24,2.42.11,1.45.16,2.91.14,4.37,0,.79,0,1.58,0,2.36s-.09,1.55-.15,2.32-.14,1.51-.23,2.27A20.21,20.21,0,0,1,44,34.45a4.72,4.72,0,0,1-1.21,2.21A5,5,0,0,1,40,38.14c-.71.12-1.43.22-2.15.28s-1.65.14-2.48.19-1.77.1-2.66.13c-1.25,0-2.49.08-3.74.1-2.05,0-4.09,0-6.14,0-1.1,0-2.19,0-3.28-.06q-1,0-1.92-.06l-2.33-.11-1.78-.11c-.56,0-1.11-.09-1.66-.15s-1.19-.14-1.78-.22A4.92,4.92,0,0,1,6,34.41,18.15,18.15,0,0,1,5.56,32c-.09-.81-.17-1.63-.24-2.45,0-.5-.05-1-.08-1.52-.07-1.32-.08-2.64,0-4,0-1,.06-2,.12-3.07,0-.81.11-1.62.19-2.42A25.88,25.88,0,0,1,6,15.66a4.72,4.72,0,0,1,1.18-2.21A4.81,4.81,0,0,1,9.52,12c.4-.09.81-.15,1.22-.21.62-.08,1.23-.15,1.85-.21.44,0,.89-.08,1.33-.11l1.73-.11.71,0,2.11-.07c1.05,0,2.09-.07,3.14-.08s2.36,0,3.54,0h.19ZM21.17,31,31.51,25,21.17,19.09Z"/><path class="cls-3" d="M21.17,31V19.09L31.51,25Z"/></svg>